<?xml version="1.0" encoding="utf-8"?>
<svg width="600pt" viewBox="0 0 600 200" preserveAspectRatio="xMidYMid meet" xmlns="http://www.w3.org/2000/svg">
  <defs>
    <style id="bx-google-fonts">@import url(https://fonts.googleapis.com/css?family=Bitter:400,400italic,700);</style>
  </defs>
  <g transform="matrix(0.1, 0, 0, -0.1, -65.32814, 389.051727)" fill="#000000" stroke="none">
    <path d="M 1428.193 3482.278 C 1401.898 3478.372 1386.537 3475.248 1386.537 3473.686 C 1386.537 3472.645 1382.372 3470.301 1377.165 3468.739 C 1369.354 3466.396 1368.573 3466.657 1371.177 3469.781 C 1375.082 3474.727 1374.561 3474.467 1348.266 3465.876 C 1264.433 3438.279 1201.169 3398.185 1139.205 3333.097 C 1118.898 3311.749 1099.632 3290.921 1096.508 3286.755 C 1090.26 3278.424 1080.887 3269.572 1067.869 3259.158 C 1062.663 3254.993 1057.195 3249.005 1055.373 3245.62 C 1053.55 3242.235 1040.012 3221.928 1025.433 3200.579 C 992.368 3152.155 987.161 3138.356 988.984 3105.552 C 989.765 3092.274 991.848 3080.298 994.191 3076.913 C 999.658 3068.322 1001.22 3057.127 997.055 3056.346 C 993.93 3055.825 993.93 3054.523 996.794 3049.056 C 1000.96 3041.246 1001.22 3040.204 1001.22 3033.435 C 1001.22 3030.832 1003.303 3026.406 1005.906 3023.802 C 1008.769 3021.199 1012.936 3015.211 1015.8 3010.524 C 1018.663 3005.578 1024.131 3000.891 1029.077 2999.069 C 1033.764 2997.247 1037.669 2994.903 1037.669 2993.862 C 1037.669 2989.176 1062.142 2976.419 1073.858 2974.857 C 1087.917 2973.034 1112.91 2975.638 1107.963 2978.762 C 1106.141 2979.803 1110.827 2983.448 1119.679 2988.134 C 1128.01 2992.04 1139.986 3000.11 1146.495 3006.098 C 1161.595 3019.375 1181.382 3046.192 1179.559 3050.879 C 1179.039 3052.961 1180.08 3058.168 1182.423 3062.594 C 1184.766 3066.76 1185.287 3069.624 1183.725 3068.843 C 1179.039 3065.979 1180.341 3071.186 1187.37 3083.162 C 1194.66 3096.179 1195.701 3100.604 1189.973 3095.919 C 1184.506 3091.493 1181.642 3094.878 1185.547 3101.125 C 1187.37 3103.99 1188.672 3110.759 1188.672 3116.487 C 1188.672 3122.735 1190.754 3128.983 1194.4 3133.67 C 1197.524 3137.575 1200.127 3143.042 1200.388 3145.385 C 1200.648 3147.989 1202.731 3153.196 1205.334 3157.101 C 1212.623 3168.296 1208.198 3167.515 1199.086 3155.799 C 1186.589 3140.178 1186.329 3145.125 1198.825 3165.953 C 1212.364 3188.864 1220.174 3206.828 1218.352 3211.514 C 1217.57 3213.857 1219.914 3216.461 1224.86 3218.544 C 1229.286 3220.626 1232.411 3223.49 1231.89 3225.313 C 1229.546 3231.301 1255.842 3253.43 1278.492 3264.625 C 1301.143 3276.081 1305.829 3279.465 1293.852 3276.602 C 1282.918 3273.738 1288.906 3280.507 1302.965 3286.755 C 1309.474 3289.619 1316.243 3293.524 1317.545 3295.607 C 1319.107 3297.429 1322.491 3299.512 1325.355 3300.033 C 1328.219 3300.554 1337.331 3302.897 1345.662 3305.5 C 1353.733 3307.843 1362.064 3309.406 1363.627 3308.885 C 1365.449 3308.104 1361.283 3306.021 1354.514 3304.199 C 1347.745 3302.116 1342.278 3299.252 1342.278 3297.69 C 1342.278 3295.086 1326.657 3283.371 1323.272 3283.371 C 1320.669 3283.371 1292.291 3261.241 1285.261 3253.691 C 1275.108 3242.756 1281.617 3245.88 1297.498 3259.679 C 1317.805 3277.122 1327.959 3282.329 1324.835 3273.738 C 1323.533 3270.093 1324.835 3270.614 1330.302 3275.3 C 1334.988 3279.726 1337.852 3281.027 1339.935 3278.945 C 1341.757 3277.122 1335.509 3271.134 1319.628 3259.939 C 1288.646 3237.809 1276.149 3224.271 1272.244 3208.911 C 1270.421 3202.142 1265.995 3191.467 1262.351 3184.958 C 1255.842 3173.764 1255.842 3173.503 1261.309 3176.888 C 1264.433 3178.97 1270.682 3186.521 1275.108 3193.55 C 1279.534 3200.84 1290.208 3213.597 1299.06 3222.449 C 1316.764 3239.632 1339.674 3256.555 1339.674 3252.129 C 1339.674 3250.827 1338.633 3249.525 1337.331 3249.525 C 1332.385 3249.525 1321.45 3235.466 1322.752 3230.78 C 1323.793 3228.176 1323.272 3226.094 1321.971 3226.094 C 1320.409 3226.094 1318.586 3224.271 1317.805 3222.188 C 1316.503 3218.544 1317.545 3218.804 1324.054 3222.709 C 1328.479 3225.052 1331.864 3228.958 1331.864 3230.78 C 1331.864 3233.123 1333.425 3233.904 1336.029 3232.863 C 1338.893 3231.821 1344.1 3234.685 1351.13 3241.194 C 1371.958 3260.46 1424.288 3283.891 1452.926 3287.015 C 1478.18 3289.619 1497.186 3290.921 1491.979 3289.359 C 1489.115 3288.578 1485.47 3287.015 1483.908 3285.714 C 1482.086 3284.412 1476.098 3282.85 1470.37 3282.329 C 1453.968 3280.507 1429.495 3272.176 1434.962 3270.093 C 1437.566 3269.312 1444.595 3270.874 1450.844 3273.477 C 1458.654 3276.862 1471.151 3278.684 1494.582 3279.986 C 1512.546 3280.767 1527.907 3282.329 1528.428 3283.371 C 1528.948 3284.412 1536.238 3284.152 1544.569 3283.11 C 1552.901 3282.069 1559.93 3281.548 1560.711 3282.329 C 1561.232 3282.85 1560.451 3283.371 1558.889 3283.371 C 1557.066 3283.371 1555.765 3284.672 1555.765 3286.234 C 1555.765 3287.796 1558.108 3288.317 1560.971 3287.276 C 1563.835 3286.495 1566.178 3286.755 1566.178 3288.057 C 1566.178 3289.359 1563.835 3291.181 1560.971 3291.962 C 1557.587 3292.743 1556.285 3294.566 1557.327 3297.429 C 1559.149 3301.855 1564.616 3302.376 1572.687 3298.992 C 1577.113 3297.169 1576.853 3296.648 1570.344 3296.648 C 1557.327 3296.128 1565.658 3293.004 1581.279 3292.223 C 1591.432 3291.702 1594.557 3292.223 1590.912 3293.785 C 1585.965 3295.867 1585.965 3296.128 1591.693 3296.128 C 1594.817 3296.388 1597.42 3295.347 1597.42 3293.785 C 1597.42 3291.181 1607.574 3288.057 1633.869 3282.59 C 1643.242 3280.767 1650.532 3277.903 1650.271 3276.341 C 1650.011 3274.779 1653.395 3272.696 1658.082 3271.915 C 1664.07 3270.614 1665.372 3269.572 1662.768 3268.01 C 1659.904 3266.187 1660.425 3265.406 1665.111 3263.844 C 1668.235 3262.803 1673.703 3261.762 1677.087 3261.241 C 1680.472 3260.981 1686.2 3258.637 1689.844 3256.294 C 1696.353 3251.868 1696.614 3251.608 1691.927 3248.223 C 1687.501 3244.839 1687.762 3244.579 1695.051 3241.194 C 1699.477 3239.372 1709.371 3233.644 1717.181 3228.437 C 1724.992 3223.49 1734.624 3218.283 1738.79 3217.502 C 1742.695 3216.461 1745.82 3214.378 1745.82 3213.076 C 1745.82 3211.514 1748.163 3210.473 1750.766 3210.473 C 1756.495 3210.473 1761.18 3205.526 1755.714 3205.005 C 1753.891 3204.745 1755.193 3203.964 1758.838 3202.923 C 1762.742 3201.881 1765.085 3199.278 1765.085 3196.674 C 1764.825 3194.071 1766.386 3192.248 1769.251 3192.248 C 1775.759 3192.248 1787.475 3182.355 1787.475 3176.627 C 1787.475 3173.764 1790.339 3170.9 1795.286 3169.338 C 1799.453 3167.775 1806.221 3162.568 1810.647 3157.882 C 1814.812 3153.196 1819.238 3150.072 1820.279 3151.113 C 1823.404 3154.237 1816.113 3168.296 1810.385 3169.598 C 1807.522 3170.379 1805.96 3172.201 1807.002 3174.024 C 1808.043 3175.846 1811.947 3173.764 1818.196 3168.557 C 1827.569 3160.225 1844.232 3151.894 1846.575 3154.237 C 1847.096 3154.758 1844.492 3156.841 1840.588 3158.924 C 1832.256 3162.829 1828.611 3169.858 1836.161 3166.994 C 1847.877 3162.829 1784.612 3224.792 1770.552 3231.301 C 1764.825 3233.904 1751.287 3242.496 1740.613 3250.827 C 1729.938 3258.898 1718.223 3266.708 1714.838 3268.01 C 1711.453 3269.312 1709.371 3271.134 1710.152 3271.915 C 1712.234 3274.258 1727.074 3265.667 1747.121 3250.567 C 1767.689 3235.206 1774.197 3232.082 1760.921 3244.318 C 1756.234 3248.484 1753.109 3252.129 1754.151 3252.129 C 1756.755 3252.129 1797.63 3216.2 1837.203 3178.97 C 1869.746 3147.989 1873.651 3143.303 1886.669 3119.09 C 1894.479 3104.51 1905.154 3084.464 1910.881 3074.05 C 1916.349 3063.896 1921.817 3052.18 1923.119 3047.754 C 1924.159 3043.589 1927.023 3034.737 1929.365 3028.489 C 1935.093 3012.607 1932.489 3008.702 1925.982 3023.281 C 1923.119 3030.051 1919.474 3036.299 1917.911 3037.08 C 1914.266 3039.423 1914.266 3038.382 1917.651 3029.009 L 1920.255 3021.719 L 1915.047 3028.228 C 1908.799 3036.039 1908.538 3034.216 1914.006 3020.678 C 1916.349 3014.95 1917.651 3008.181 1917.13 3005.578 C 1916.089 3000.371 1906.716 3021.979 1902.029 3040.725 C 1900.467 3046.973 1896.821 3054.263 1893.959 3057.127 C 1891.355 3059.729 1889.011 3063.375 1889.011 3064.677 C 1889.011 3068.582 1870.267 3096.179 1868.705 3094.617 C 1867.924 3094.097 1870.788 3088.369 1874.953 3082.381 C 1879.12 3076.132 1883.284 3068.322 1884.326 3064.677 C 1885.107 3061.032 1888.49 3051.399 1891.615 3042.808 C 1894.479 3034.477 1896.301 3026.926 1895.259 3025.885 C 1894.218 3025.104 1892.917 3025.885 1892.397 3027.707 C 1891.615 3029.27 1890.052 3030.311 1888.752 3029.27 C 1887.45 3028.489 1886.409 3029.27 1886.409 3030.571 C 1886.409 3032.133 1884.326 3033.435 1881.722 3033.435 C 1878.078 3033.435 1876.776 3031.352 1876.776 3025.625 C 1876.776 3021.458 1877.818 3017.814 1878.859 3017.814 C 1880.161 3017.814 1880.422 3015.992 1879.38 3013.909 C 1878.599 3011.566 1879.901 3007.661 1882.503 3004.797 C 1884.846 3002.193 1886.148 2998.809 1885.367 2997.507 C 1884.065 2995.164 1887.45 2981.886 1891.876 2973.034 C 1895.259 2966.265 1897.083 2931.378 1894.218 2933.201 C 1892.656 2934.242 1891.615 2937.106 1891.615 2939.97 C 1891.615 2957.153 1872.87 3010.524 1864.539 3017.554 C 1862.196 3019.375 1860.374 3023.281 1860.374 3025.885 C 1860.374 3028.749 1859.332 3030.832 1858.029 3030.832 C 1856.988 3030.832 1852.563 3037.601 1848.657 3045.932 C 1839.286 3065.979 1827.569 3087.588 1823.924 3092.014 C 1822.102 3094.357 1821.842 3095.919 1823.924 3097.221 C 1825.226 3098.002 1826.528 3097.481 1826.528 3095.659 C 1826.528 3093.836 1827.049 3093.055 1828.09 3093.836 C 1831.214 3096.96 1798.672 3142.261 1777.582 3164.131 C 1741.133 3201.881 1682.815 3241.715 1663.809 3241.715 C 1660.946 3241.715 1655.999 3243.537 1652.875 3245.62 C 1649.751 3247.703 1639.337 3250.567 1629.183 3252.129 C 1609.136 3254.993 1602.627 3256.815 1602.627 3259.939 C 1602.627 3261.241 1600.284 3262.022 1597.42 3261.762 C 1594.557 3261.501 1592.213 3260.72 1592.213 3259.939 C 1592.213 3257.856 1610.959 3250.046 1619.55 3248.484 C 1628.923 3246.922 1637.514 3243.277 1648.189 3236.768 C 1652.614 3233.904 1657.821 3231.561 1659.904 3231.561 C 1662.247 3231.301 1668.496 3228.958 1674.223 3226.094 C 1679.951 3223.23 1686.46 3220.887 1689.063 3220.887 C 1695.312 3220.887 1711.974 3212.556 1710.672 3210.212 C 1709.891 3209.171 1714.578 3206.307 1721.086 3203.704 C 1733.062 3199.278 1736.447 3194.852 1728.376 3194.852 C 1725.512 3194.591 1727.595 3192.509 1733.323 3189.645 C 1738.53 3186.781 1748.423 3178.45 1755.453 3171.16 C 1762.222 3163.61 1772.114 3153.456 1777.321 3148.249 C 1782.529 3143.042 1787.475 3136.794 1788.257 3134.19 C 1789.298 3131.847 1791.641 3128.983 1793.984 3128.463 C 1808.043 3124.037 1807.522 3124.557 1802.576 3121.694 C 1798.151 3119.35 1798.411 3118.569 1804.398 3112.061 C 1808.043 3108.155 1810.906 3103.729 1810.906 3102.167 C 1810.906 3100.345 1812.729 3098.262 1815.071 3097.481 C 1817.416 3096.44 1818.717 3095.138 1817.936 3094.097 C 1816.895 3093.316 1822.102 3081.339 1829.392 3067.801 C 1836.422 3054.003 1845.532 3034.997 1849.177 3025.625 C 1852.822 3016.252 1857.249 3005.317 1859.071 3000.891 C 1867.924 2980.583 1875.214 2944.396 1877.557 2908.467 C 1881.722 2850.41 1860.894 2768.66 1832.256 2729.347 C 1811.688 2701.229 1811.947 2701.49 1815.592 2703.833 C 1828.611 2711.904 1789.819 2668.946 1770.031 2653.584 C 1747.642 2636.142 1731.24 2624.687 1728.376 2624.687 C 1726.554 2624.687 1715.879 2620 1704.945 2614.272 C 1684.117 2603.598 1645.325 2589.539 1615.645 2581.729 C 1606.272 2579.125 1595.858 2576.261 1592.213 2574.959 C 1572.687 2568.451 1463.08 2566.368 1430.797 2572.096 C 1420.122 2574.179 1403.46 2577.824 1393.827 2580.687 C 1384.455 2583.291 1375.082 2585.634 1372.999 2585.634 C 1368.573 2585.634 1361.544 2588.758 1329.521 2604.379 C 1277.972 2629.893 1255.581 2646.295 1211.321 2691.076 C 1177.997 2724.661 1173.05 2730.128 1173.05 2733.252 C 1173.05 2734.814 1171.227 2737.418 1169.146 2739.24 C 1166.802 2741.063 1165.761 2744.447 1166.542 2746.27 C 1167.844 2750.175 1164.199 2759.027 1158.211 2764.755 C 1153.004 2769.961 1154.306 2764.755 1160.033 2757.465 C 1166.282 2749.394 1166.802 2745.228 1160.814 2749.915 C 1158.211 2752.258 1159.252 2748.873 1163.678 2741.323 C 1167.583 2734.294 1169.666 2728.826 1168.104 2728.826 C 1166.542 2728.826 1163.939 2731.43 1162.377 2734.814 C 1160.554 2737.938 1157.17 2742.885 1154.566 2745.749 C 1137.643 2764.755 1128.271 2778.553 1110.827 2809.014 C 1104.839 2819.168 1099.372 2827.759 1098.851 2827.759 C 1097.289 2827.759 1101.455 2817.345 1108.224 2803.807 L 1113.691 2792.612 L 1104.058 2803.026 C 1098.591 2808.754 1095.206 2811.617 1096.508 2809.535 C 1100.153 2802.766 1111.608 2787.665 1116.555 2783.5 C 1120.981 2779.594 1131.394 2754.601 1131.394 2747.571 C 1131.394 2745.489 1135.56 2738.72 1140.767 2732.471 C 1146.495 2725.442 1148.838 2721.016 1146.755 2721.016 C 1144.673 2721.016 1134.259 2734.294 1123.584 2750.175 C 1112.91 2766.317 1102.756 2780.896 1101.194 2782.198 C 1099.632 2783.76 1097.549 2787.926 1096.508 2792.091 C 1095.467 2795.996 1093.123 2799.121 1091.041 2799.121 C 1089.218 2799.121 1086.875 2801.464 1085.834 2804.067 C 1085.053 2806.931 1082.71 2810.576 1080.366 2812.138 C 1077.242 2815.002 1076.982 2814.742 1078.804 2810.576 C 1084.011 2798.079 1097.029 2773.346 1103.537 2763.973 C 1107.443 2758.246 1110.567 2751.997 1110.567 2749.915 C 1110.567 2747.832 1112.91 2743.666 1115.514 2740.802 C 1120.721 2735.075 1126.969 2725.181 1136.862 2706.697 C 1139.986 2700.969 1148.317 2688.993 1155.347 2680.141 C 1162.377 2671.029 1167.323 2663.739 1166.021 2663.739 C 1163.418 2663.999 1139.726 2694.2 1123.064 2719.193 C 1116.034 2729.087 1109.005 2738.72 1106.922 2740.282 C 1103.017 2743.406 1084.532 2772.825 1075.941 2789.488 C 1073.337 2794.695 1070.473 2799.121 1069.692 2799.121 C 1068.39 2799.121 1070.213 2790.008 1073.337 2781.938 C 1074.378 2778.813 1074.118 2778.032 1071.775 2779.333 C 1069.692 2780.636 1070.213 2777.771 1073.077 2771.263 C 1075.42 2765.796 1078.804 2756.684 1080.627 2750.956 C 1085.313 2736.116 1099.372 2711.383 1113.171 2693.419 C 1129.312 2672.33 1134.519 2663.739 1131.394 2663.739 C 1129.833 2663.739 1127.75 2665.822 1126.969 2668.165 C 1125.928 2670.768 1123.845 2673.893 1121.762 2674.934 C 1118.638 2677.017 1102.756 2697.324 1091.041 2714.507 C 1078.284 2733.252 1055.893 2769.961 1055.893 2772.044 C 1055.893 2773.346 1051.988 2779.333 1047.302 2785.062 C 1042.876 2791.05 1037.669 2798.079 1035.847 2800.683 C 1033.243 2805.109 1032.983 2804.848 1034.024 2799.121 C 1034.545 2795.476 1030.379 2801.984 1024.651 2813.44 C 1019.184 2824.895 1014.238 2832.966 1014.238 2831.144 C 1014.238 2826.457 1028.817 2787.145 1037.669 2768.399 C 1045.74 2751.477 1047.042 2747.051 1043.397 2747.051 C 1042.355 2747.051 1039.752 2751.477 1037.669 2756.684 C 1033.764 2767.879 1019.445 2791.57 1019.445 2787.145 C 1019.445 2785.843 1020.486 2783.5 1021.788 2781.938 C 1023.089 2780.636 1028.557 2769.18 1033.764 2756.163 C 1038.711 2743.406 1045.219 2729.868 1047.562 2726.223 C 1050.166 2722.578 1055.112 2713.986 1058.497 2706.697 C 1061.881 2699.667 1066.828 2690.555 1069.432 2686.65 C 1074.639 2678.839 1075.159 2676.756 1071.515 2676.756 C 1067.609 2676.756 1043.657 2714.507 1027.255 2746.53 C 1022.569 2755.642 1018.403 2762.411 1017.622 2761.63 C 1015.8 2760.068 1041.574 2710.341 1054.592 2689.774 C 1061.1 2679.62 1066.307 2670.248 1066.307 2668.946 C 1066.307 2667.384 1068.13 2665.561 1070.213 2664.78 C 1072.296 2663.739 1074.118 2662.177 1074.118 2660.615 C 1074.118 2659.313 1081.929 2648.118 1091.821 2636.142 C 1101.455 2623.905 1109.525 2612.709 1110.046 2610.888 C 1110.827 2607.764 1104.579 2614.533 1094.686 2627.03 C 1091.821 2630.414 1088.958 2632.757 1088.177 2631.716 C 1086.094 2629.633 1094.686 2614.272 1099.111 2612.45 C 1100.934 2611.668 1102.756 2609.586 1102.756 2607.503 C 1102.756 2605.421 1104.579 2603.859 1106.662 2603.859 C 1108.744 2603.859 1111.608 2601.515 1113.171 2598.652 C 1114.733 2595.788 1115.253 2593.445 1114.472 2593.445 C 1113.691 2593.445 1117.336 2589.019 1122.803 2583.291 C 1128.271 2577.824 1137.383 2567.93 1143.111 2561.161 C 1148.838 2554.392 1158.211 2546.321 1163.939 2542.676 C 1169.666 2539.292 1178.518 2532.783 1183.465 2528.357 L 1192.577 2520.286 L 1184.246 2524.452 C 1164.72 2533.825 1107.182 2587.977 1080.106 2622.343 C 1065.526 2640.828 1061.621 2640.828 1075.42 2622.083 C 1088.437 2604.379 1083.23 2605.421 1068.911 2623.645 C 1062.402 2631.716 1054.852 2640.568 1051.727 2643.692 C 1044.959 2650.982 1023.089 2684.307 1018.924 2694.2 C 1017.362 2698.104 1013.977 2703.833 1011.373 2706.697 C 1009.031 2709.56 1000.96 2723.88 993.41 2738.72 C 986.12 2753.299 979.351 2765.275 978.57 2765.275 C 974.925 2765.275 983.256 2743.666 1000.439 2709.3 C 1005.646 2699.407 1010.071 2688.732 1010.331 2685.869 C 1010.593 2683.005 1011.113 2679.62 1011.373 2678.579 C 1011.373 2677.277 1012.675 2677.277 1014.238 2678.058 C 1017.362 2680.141 1027.776 2663.479 1025.953 2659.053 C 1025.172 2657.229 1025.953 2653.325 1027.255 2650.461 C 1029.077 2647.077 1029.077 2645.514 1027.515 2645.514 C 1025.953 2645.514 1022.308 2649.939 1019.445 2655.146 C 1016.581 2660.615 1011.373 2669.727 1007.729 2675.455 C 1004.084 2681.182 1000.439 2687.691 999.658 2689.774 C 998.617 2691.857 993.41 2703.312 987.942 2715.288 C 982.215 2727.264 977.789 2739.24 977.789 2741.844 C 977.789 2744.447 974.404 2755.642 969.977 2766.577 C 965.813 2777.512 961.126 2792.872 959.304 2800.683 C 957.482 2808.493 955.138 2815.523 953.837 2816.304 C 952.535 2817.085 952.014 2815.002 952.795 2811.617 C 964.771 2755.642 968.416 2741.323 972.581 2732.211 C 975.446 2725.962 977.789 2718.933 977.789 2716.069 C 977.789 2713.205 979.09 2710.602 980.652 2710.081 C 982.215 2709.56 983.777 2705.916 983.777 2702.01 C 983.777 2698.104 985.078 2694.981 986.64 2694.981 C 990.286 2694.981 998.617 2673.372 998.617 2664.52 C 998.617 2661.135 1001.481 2656.708 1005.125 2654.366 C 1008.769 2652.022 1012.675 2645.775 1014.238 2639.787 C 1015.8 2634.319 1019.184 2628.852 1021.527 2628.071 C 1026.995 2626.249 1034.805 2616.875 1035.066 2612.45 C 1035.066 2607.503 1053.29 2584.593 1058.757 2582.51 C 1063.444 2580.687 1065.006 2576 1063.964 2567.93 C 1063.704 2565.848 1065.787 2563.765 1068.651 2562.984 C 1071.775 2562.203 1074.118 2560.901 1074.118 2559.859 C 1074.118 2558.818 1081.147 2550.487 1089.739 2541.375 C 1098.33 2532.001 1104.579 2526.795 1103.537 2529.659 C 1101.975 2534.345 1102.236 2534.605 1106.922 2530.961 C 1109.525 2528.878 1118.377 2521.067 1126.188 2513.517 C 1142.069 2498.677 1159.773 2484.098 1162.377 2484.098 C 1163.158 2484.098 1168.104 2480.453 1173.05 2476.287 C 1177.997 2472.122 1183.465 2468.477 1184.766 2468.477 C 1186.329 2468.477 1191.796 2465.613 1197.003 2461.968 C 1213.665 2450.772 1230.328 2442.702 1234.233 2444.004 C 1236.316 2444.785 1242.304 2441.921 1247.771 2437.495 C 1253.238 2433.069 1259.226 2429.424 1261.049 2429.424 C 1262.871 2429.424 1267.818 2427.602 1271.723 2425.519 C 1283.96 2419.271 1313.64 2408.596 1313.64 2410.679 C 1313.64 2411.721 1309.213 2414.584 1303.746 2416.928 C 1298.539 2419.531 1296.456 2420.833 1299.32 2420.052 C 1302.184 2419.01 1316.243 2415.366 1330.562 2411.98 C 1344.881 2408.336 1366.49 2402.608 1378.727 2399.224 C 1422.726 2386.206 1460.737 2384.124 1533.114 2390.112 C 1641.419 2398.964 1745.299 2434.631 1821.061 2489.305 C 1828.871 2494.771 1836.422 2498.677 1837.984 2497.896 C 1839.546 2497.115 1840.067 2497.115 1839.026 2498.417 C 1837.984 2499.458 1842.671 2504.665 1849.439 2510.133 C 1856.208 2515.34 1866.882 2525.233 1873.391 2532.001 C 1879.901 2538.771 1887.971 2545.54 1891.355 2546.842 C 1895 2548.404 1896.821 2550.747 1896.041 2552.83 C 1894.479 2556.735 1902.55 2565.848 1905.154 2563.504 C 1905.935 2562.723 1905.935 2565.066 1905.154 2568.972 C 1904.373 2573.917 1904.893 2575.479 1906.716 2574.179 C 1908.538 2573.137 1909.319 2573.658 1908.278 2576 C 1906.716 2580.167 1912.964 2586.155 1917.651 2585.113 C 1919.474 2584.593 1921.557 2585.894 1922.338 2587.977 C 1923.119 2590.06 1922.338 2590.841 1920.515 2589.8 C 1915.568 2586.675 1917.13 2590.32 1926.763 2604.119 C 1935.093 2616.354 1937.696 2622.083 1934.833 2622.083 C 1934.051 2622.083 1929.365 2615.054 1924.159 2606.462 C 1918.953 2597.87 1913.485 2590.841 1912.183 2590.841 C 1910.881 2590.841 1909.84 2589.019 1909.84 2586.936 C 1909.84 2584.853 1909.319 2583.031 1908.799 2583.031 C 1908.278 2583.031 1905.674 2582.249 1903.071 2581.208 C 1899.166 2579.646 1899.425 2580.948 1904.633 2588.498 C 1908.018 2593.445 1913.745 2600.474 1917.13 2604.379 C 1920.776 2608.284 1923.119 2612.189 1922.338 2613.23 C 1921.557 2614.012 1916.87 2609.326 1912.183 2602.817 C 1907.497 2596.308 1902.811 2590.841 1901.769 2590.841 C 1898.904 2590.841 1901.769 2599.172 1905.674 2602.557 C 1909.58 2606.202 1915.307 2616.616 1916.349 2621.823 C 1916.87 2624.166 1919.474 2630.154 1922.597 2635.1 C 1932.751 2652.283 1940.3 2667.644 1941.863 2674.934 C 1942.904 2678.839 1944.987 2681.963 1946.289 2681.963 C 1947.851 2681.963 1948.892 2683.525 1948.892 2685.348 C 1948.892 2687.17 1950.194 2690.034 1952.017 2691.857 C 1954.62 2694.46 1957.224 2705.395 1954.88 2705.395 C 1954.62 2705.395 1952.537 2701.229 1950.194 2696.021 C 1948.111 2691.076 1945.248 2687.431 1944.206 2688.212 C 1942.904 2688.993 1938.478 2683.525 1934.572 2675.975 C 1921.557 2652.283 1918.693 2647.077 1910.1 2634.58 C 1905.414 2627.55 1900.207 2622.083 1898.645 2622.083 C 1896.821 2622.083 1892.917 2617.917 1889.532 2612.709 C 1886.409 2607.764 1882.503 2604.379 1881.463 2605.16 C 1880.161 2605.681 1877.557 2604.379 1875.734 2602.036 C 1872.61 2598.391 1872.61 2597.87 1875.734 2599.693 C 1878.078 2601.255 1878.859 2600.995 1878.078 2598.391 C 1877.297 2596.308 1874.953 2594.746 1872.87 2594.746 C 1870.527 2594.746 1866.101 2591.622 1863.237 2587.717 C 1857.509 2580.427 1820.54 2551.789 1816.895 2551.789 C 1815.854 2551.789 1809.605 2548.144 1803.096 2543.718 C 1790.079 2535.125 1768.99 2523.671 1773.155 2527.836 C 1774.717 2529.138 1781.748 2534.345 1789.038 2539.031 C 1796.328 2543.978 1802.576 2548.664 1802.836 2549.706 C 1803.096 2550.747 1814.551 2562.463 1828.09 2575.741 C 1857.509 2604.379 1904.633 2666.082 1904.633 2675.975 C 1904.633 2677.277 1906.976 2680.662 1909.84 2683.265 C 1916.089 2688.993 1925.982 2709.56 1948.632 2763.973 C 1958.786 2787.926 1974.926 2860.823 1977.791 2895.19 C 1980.654 2926.952 1978.833 2964.963 1974.146 2976.158 C 1972.844 2979.803 1971.802 2984.75 1972.063 2987.353 C 1972.844 2994.122 1967.117 3010.264 1964.253 3008.442 C 1962.951 3007.661 1959.568 3012.087 1956.703 3018.335 C 1952.277 3027.968 1951.496 3028.489 1952.537 3021.719 C 1954.099 3012.607 1944.987 3031.352 1932.751 3062.074 C 1914.787 3108.155 1902.29 3137.575 1893.959 3152.155 C 1889.793 3159.444 1886.409 3167.255 1886.409 3169.077 C 1886.409 3171.16 1875.474 3185.74 1861.936 3201.361 C 1848.397 3217.242 1837.984 3230.78 1838.765 3232.082 C 1839.286 3233.123 1839.026 3233.904 1837.724 3233.644 C 1832.776 3232.863 1830.693 3234.165 1834.078 3236.247 C 1836.682 3238.07 1835.901 3239.632 1830.433 3243.277 C 1826.528 3246.141 1818.457 3252.389 1812.468 3257.596 C 1806.74 3262.543 1797.891 3269.312 1793.464 3272.696 C 1788.777 3275.82 1784.872 3280.507 1784.872 3282.59 C 1784.872 3284.933 1784.091 3285.974 1783.05 3285.193 C 1782.269 3284.152 1779.925 3284.672 1777.842 3286.495 C 1776.02 3288.057 1773.676 3288.838 1773.155 3288.057 C 1772.375 3287.536 1779.144 3281.027 1788.257 3273.738 C 1805.179 3259.679 1823.664 3241.715 1820.54 3241.715 C 1816.374 3241.715 1795.286 3256.294 1795.286 3259.158 C 1795.286 3260.981 1793.464 3262.543 1791.381 3262.543 C 1789.298 3262.543 1785.653 3265.406 1783.31 3269.051 C 1780.967 3272.696 1777.582 3275.56 1775.499 3275.56 C 1773.676 3275.56 1771.072 3277.122 1770.031 3278.945 C 1768.99 3280.767 1765.085 3283.631 1761.442 3285.453 C 1757.797 3287.015 1753.109 3289.619 1751.027 3290.921 C 1748.944 3292.223 1743.737 3294.826 1739.571 3296.648 C 1726.554 3302.897 1721.867 3305.24 1700.258 3316.175 C 1688.803 3322.163 1675.265 3327.89 1670.318 3328.671 C 1657.561 3331.275 1646.887 3335.701 1646.887 3338.304 C 1646.887 3340.908 1657.04 3339.085 1669.537 3333.878 C 1673.963 3332.056 1679.951 3331.275 1682.555 3331.796 C 1692.188 3334.399 1713.797 3324.245 1752.849 3298.471 C 1768.469 3288.317 1777.842 3288.057 1765.085 3298.211 C 1757.276 3304.459 1729.418 3321.121 1702.862 3335.441 C 1686.72 3344.032 1681.253 3347.937 1689.324 3345.073 C 1691.667 3344.032 1693.75 3343.772 1693.75 3344.292 C 1693.75 3346.635 1672.922 3357.31 1659.904 3361.736 L 1645.585 3366.422 L 1658.603 3364.86 C 1665.892 3364.079 1676.827 3361.215 1683.075 3358.612 C 1689.324 3356.008 1697.395 3353.665 1701.3 3353.925 C 1707.027 3353.925 1706.246 3354.967 1695.572 3360.174 C 1679.951 3367.463 1677.348 3370.067 1687.241 3368.244 C 1703.122 3365.12 1675.265 3376.576 1640.378 3387.771 C 1601.326 3400.007 1594.036 3404.433 1616.947 3401.83 C 1633.869 3399.747 1669.016 3388.812 1711.453 3372.15 C 1729.157 3365.381 1738.009 3363.038 1738.009 3365.12 C 1738.009 3366.943 1734.885 3369.807 1731.24 3371.369 C 1727.595 3373.191 1725.512 3375.534 1726.293 3377.096 C 1727.855 3379.7 1715.619 3383.865 1709.631 3382.564 C 1707.548 3382.303 1704.164 3383.865 1702.602 3386.209 C 1700.779 3388.552 1696.353 3390.895 1692.708 3391.155 C 1689.063 3391.155 1685.939 3392.457 1685.939 3393.498 C 1685.939 3396.102 1700.258 3393.238 1709.371 3388.812 C 1717.702 3384.907 1740.352 3378.659 1741.914 3379.96 C 1742.435 3380.741 1733.583 3385.428 1722.388 3390.374 L 1701.56 3399.486 L 1715.359 3399.226 C 1722.909 3398.966 1734.104 3396.623 1740.873 3393.498 C 1747.642 3390.635 1758.057 3387.25 1764.304 3386.469 L 1775.759 3384.907 L 1761.442 3392.457 C 1753.63 3396.623 1740.352 3402.871 1732.281 3405.995 C 1723.95 3409.119 1717.181 3413.025 1717.181 3414.847 C 1717.181 3416.93 1719.264 3417.711 1722.388 3416.93 C 1725.252 3416.149 1726.814 3414.587 1726.033 3413.285 C 1725.252 3411.983 1727.595 3410.942 1731.24 3410.942 C 1734.885 3410.942 1738.009 3409.9 1738.009 3408.338 C 1738.009 3407.037 1740.092 3405.735 1742.695 3405.735 C 1745.299 3405.735 1748.423 3404.693 1749.725 3403.392 C 1753.63 3400.007 1770.292 3396.883 1768.21 3400.007 C 1765.606 3404.433 1685.418 3434.894 1674.484 3435.675 C 1660.946 3436.716 1648.709 3441.403 1650.792 3444.787 C 1651.573 3446.089 1651.573 3447.391 1650.271 3447.391 C 1643.763 3447.391 1608.355 3455.982 1602.888 3459.106 C 1590.912 3465.355 1551.599 3469 1496.405 3469.26 C 1440.169 3469.52 1427.673 3468.479 1406.064 3461.97 C 1399.034 3459.888 1378.467 3453.9 1360.502 3448.953 C 1342.538 3444.006 1325.616 3439.06 1322.752 3438.279 L 1317.545 3436.456 L 1322.752 3440.101 C 1325.616 3442.184 1333.425 3445.308 1340.195 3447.391 C 1346.964 3449.213 1352.171 3451.556 1351.39 3452.598 C 1350.609 3453.639 1352.692 3455.462 1356.076 3456.243 C 1377.425 3462.231 1412.833 3470.822 1421.685 3471.864 C 1427.412 3472.384 1435.743 3473.686 1439.909 3474.467 C 1444.335 3475.248 1456.571 3476.55 1467.246 3477.331 C 1499.008 3479.414 1520.617 3481.497 1521.659 3482.798 C 1522.96 3484.1 1437.566 3483.579 1428.193 3482.278 Z M 1325.355 3449.994 C 1324.574 3448.692 1322.491 3447.391 1321.19 3447.391 C 1319.628 3447.391 1319.367 3448.692 1320.148 3449.994 C 1320.929 3451.556 1323.012 3452.598 1324.314 3452.598 C 1325.876 3452.598 1326.136 3451.556 1325.355 3449.994 Z M 1307.651 3441.923 C 1301.924 3439.06 1296.977 3437.237 1296.196 3438.018 C 1295.154 3438.799 1298.539 3441.142 1303.486 3443.225 C 1316.503 3448.953 1319.107 3447.911 1307.651 3441.923 Z M 1619.55 3375.795 L 1627.361 3372.15 L 1619.55 3373.712 C 1615.385 3374.493 1609.917 3376.055 1607.834 3377.357 C 1600.805 3381.262 1610.698 3379.96 1619.55 3375.795 Z M 1438.607 3371.889 C 1436.524 3370.588 1429.495 3369.546 1422.986 3369.546 C 1414.134 3369.546 1412.572 3370.067 1416.478 3371.889 C 1424.028 3375.274 1443.554 3375.274 1438.607 3371.889 Z M 1640.378 3369.286 L 1645.585 3366.943 L 1640.378 3366.943 C 1637.514 3366.943 1633.349 3367.984 1631.266 3369.286 C 1627.881 3371.629 1627.881 3371.889 1631.266 3371.629 C 1633.349 3371.629 1637.514 3370.588 1640.378 3369.286 Z M 1701.821 3289.359 C 1713.276 3283.631 1738.009 3268.01 1738.009 3266.187 C 1738.009 3264.625 1720.045 3273.998 1708.59 3281.288 C 1703.643 3284.672 1697.395 3288.578 1694.791 3290.4 C 1687.501 3295.086 1691.667 3294.305 1701.821 3289.359 Z M 1416.478 3285.974 C 1415.697 3284.672 1413.614 3283.371 1412.312 3283.371 C 1410.75 3283.371 1410.489 3284.672 1411.27 3285.974 C 1412.052 3287.536 1414.134 3288.578 1415.436 3288.578 C 1416.998 3288.578 1417.259 3287.536 1416.478 3285.974 Z M 1399.555 3278.684 C 1399.555 3275.56 1378.987 3266.448 1376.904 3268.531 C 1376.123 3269.572 1377.685 3270.874 1380.289 3271.915 C 1382.892 3272.696 1388.099 3275.039 1391.744 3276.862 C 1399.555 3281.288 1399.555 3281.288 1399.555 3278.684 Z M 1733.843 3228.437 C 1746.861 3220.887 1745.559 3219.585 1732.281 3226.354 C 1719.264 3232.863 1717.962 3233.904 1721.867 3233.904 C 1723.43 3233.904 1728.897 3231.561 1733.843 3228.437 Z M 1810.906 3115.445 C 1812.729 3113.362 1812.989 3111.54 1811.427 3111.54 C 1810.126 3111.54 1807.522 3113.362 1805.7 3115.445 C 1803.878 3117.528 1803.617 3119.35 1805.179 3119.35 C 1806.481 3119.35 1809.084 3117.528 1810.906 3115.445 Z M 1925.982 3066.76 C 1928.325 3059.729 1929.365 3054.263 1928.064 3054.263 C 1926.763 3054.263 1924.421 3058.949 1922.857 3064.677 C 1921.296 3070.144 1918.953 3075.612 1917.651 3076.393 C 1915.307 3077.955 1902.029 3104.51 1902.029 3107.895 C 1902.029 3112.581 1922.076 3077.955 1925.982 3066.76 Z M 998.617 3081.6 C 998.617 3079.517 998.096 3077.695 997.575 3077.695 C 997.055 3077.695 996.013 3079.517 994.972 3081.6 C 994.191 3083.683 994.711 3085.505 996.013 3085.505 C 997.575 3085.505 998.617 3083.683 998.617 3081.6 Z M 1952.017 2884.515 C 1952.017 2868.374 1950.715 2851.972 1949.413 2848.066 C 1947.851 2844.421 1945.248 2833.747 1943.685 2824.635 C 1942.123 2815.783 1934.833 2794.434 1927.804 2777.512 C 1919.474 2758.246 1915.307 2744.968 1916.349 2741.844 C 1918.953 2734.033 1898.384 2696.283 1879.38 2674.153 C 1865.06 2657.229 1843.711 2635.361 1842.671 2636.402 C 1841.89 2637.183 1846.835 2644.733 1853.343 2653.325 C 1860.113 2661.916 1865.581 2669.727 1865.581 2671.029 C 1865.581 2672.07 1870.267 2679.881 1875.995 2688.472 C 1881.722 2697.064 1886.409 2705.134 1886.409 2706.436 C 1886.409 2707.478 1891.876 2716.85 1898.904 2727.264 C 1908.278 2741.323 1913.485 2753.299 1920.776 2778.293 C 1926.242 2796.517 1930.407 2816.564 1930.668 2824.114 C 1930.668 2838.173 1934.833 2853.794 1938.478 2853.794 C 1941.342 2853.794 1945.768 2875.403 1947.851 2898.833 C 1948.632 2908.728 1949.934 2916.018 1950.715 2915.236 C 1951.496 2914.716 1952.017 2900.657 1952.017 2884.515 Z M 1180.601 2692.898 C 1186.329 2688.212 1191.275 2682.224 1191.275 2679.881 C 1191.275 2677.277 1183.985 2682.744 1171.748 2694.981 C 1161.075 2705.655 1152.223 2715.548 1152.223 2717.111 C 1152.223 2718.412 1156.128 2715.548 1161.075 2710.602 C 1165.761 2705.655 1174.613 2697.583 1180.601 2692.898 Z M 1815.854 2674.934 C 1801.796 2659.833 1791.641 2650.982 1788.777 2650.721 C 1787.475 2650.721 1794.505 2658.792 1804.398 2668.946 C 1822.623 2687.17 1832.256 2692.377 1815.854 2674.934 Z M 1216.008 2614.792 C 1214.186 2612.709 1170.446 2654.105 1170.446 2657.75 C 1170.446 2658.792 1180.861 2649.939 1193.618 2637.704 C 1206.115 2625.468 1216.269 2615.313 1216.008 2614.792 Z M 1777.062 2635.1 C 1773.417 2632.237 1769.51 2629.893 1767.948 2629.893 C 1766.648 2629.893 1768.21 2632.237 1771.854 2635.1 C 1775.499 2637.964 1779.665 2640.307 1780.967 2640.307 C 1782.529 2640.307 1780.706 2637.964 1777.062 2635.1 Z M 1825.226 2611.668 C 1822.623 2608.805 1819.238 2606.462 1817.936 2606.462 C 1816.374 2606.462 1817.936 2609.326 1821.321 2612.971 C 1828.35 2620.521 1832.256 2619.479 1825.226 2611.668 Z M 1361.804 2580.948 C 1361.023 2580.167 1358.94 2580.948 1357.118 2582.77 C 1354.775 2585.374 1355.035 2585.634 1358.68 2584.072 C 1361.283 2583.291 1362.585 2581.729 1361.804 2580.948 Z M 1766.648 2523.15 C 1764.565 2521.848 1761.701 2520.547 1760.14 2520.547 C 1758.838 2520.547 1759.359 2521.848 1761.442 2523.15 C 1763.523 2524.452 1766.648 2525.754 1767.948 2525.754 C 1769.51 2525.754 1768.73 2524.452 1766.648 2523.15 Z"/>
    <path d="M 1576.072 3470.041 C 1579.717 3468.479 1583.882 3468.219 1587.267 3469.781 C 1591.432 3471.864 1590.391 3472.124 1581.279 3472.384 C 1571.646 3472.645 1570.865 3472.384 1576.072 3470.041 Z"/>
    <path d="M 1666.934 3439.32 C 1668.756 3437.497 1670.839 3436.716 1671.62 3437.497 C 1672.401 3438.279 1671.099 3439.841 1668.496 3440.622 C 1664.851 3442.184 1664.591 3441.923 1666.934 3439.32 Z"/>
    <path d="M 1696.614 3365.901 C 1701.039 3362.256 1754.151 3335.961 1751.027 3339.085 C 1746.861 3342.991 1701.3 3366.682 1697.655 3366.682 C 1696.353 3366.682 1696.093 3366.162 1696.614 3365.901 Z"/>
    <path d="M 1707.027 3337.003 C 1709.371 3334.92 1735.406 3322.423 1735.406 3323.464 C 1735.406 3325.287 1712.495 3338.044 1709.11 3338.044 C 1707.288 3338.044 1706.507 3337.523 1707.027 3337.003 Z"/>
    <path d="M 1788.517 3333.358 C 1791.381 3330.234 1795.026 3327.63 1796.589 3327.63 C 1798.411 3327.63 1801.274 3325.808 1803.096 3323.464 C 1805.179 3321.382 1809.084 3318.257 1811.947 3316.695 C 1822.883 3311.228 1806.481 3326.328 1794.505 3332.837 C 1783.831 3338.825 1783.57 3338.825 1788.517 3333.358 Z"/>
    <path d="M 1682.815 3328.411 C 1684.637 3327.63 1686.981 3327.89 1687.762 3328.671 C 1688.803 3329.452 1687.241 3330.234 1684.377 3329.973 C 1681.513 3329.973 1680.732 3329.192 1682.815 3328.411 Z"/>
    <path d="M 1771.854 3315.914 C 1773.676 3313.571 1775.759 3312.53 1776.279 3313.05 C 1778.103 3314.873 1774.458 3319.82 1771.334 3319.82 C 1769.772 3319.82 1769.772 3318.257 1771.854 3315.914 Z"/>
    <path d="M 1873.391 3310.447 C 1873.391 3307.843 1871.829 3306.802 1869.746 3307.583 C 1862.456 3310.447 1863.498 3306.021 1872.089 3297.69 C 1876.776 3293.004 1884.326 3288.317 1888.752 3287.276 C 1893.177 3286.234 1898.904 3282.85 1901.248 3279.726 C 1909.58 3269.572 1913.745 3269.051 1905.935 3279.205 C 1901.769 3284.672 1895.521 3290.4 1891.876 3291.962 C 1886.409 3294.045 1885.888 3294.826 1889.793 3295.607 C 1897.604 3297.69 1893.959 3303.157 1879.38 3311.488 C 1874.172 3314.092 1873.391 3314.092 1873.391 3310.447 Z"/>
    <path d="M 1833.557 3303.157 C 1832.776 3301.074 1834.078 3297.95 1836.422 3295.867 C 1840.326 3292.743 1840.588 3293.004 1837.203 3297.169 C 1830.433 3305.761 1838.505 3301.595 1847.615 3291.962 C 1852.301 3286.495 1854.646 3283.631 1852.563 3285.453 C 1850.739 3287.015 1848.136 3288.578 1847.096 3288.578 C 1846.054 3288.578 1862.717 3270.874 1884.065 3249.265 C 1905.414 3227.916 1927.023 3203.443 1932.23 3195.373 C 1948.892 3169.858 1953.318 3162.568 1960.349 3150.592 C 1965.555 3141.479 1967.117 3140.178 1967.117 3144.865 C 1967.117 3147.989 1966.075 3150.592 1964.774 3150.592 C 1962.432 3150.592 1957.745 3161.006 1959.047 3163.349 C 1959.568 3163.87 1958.786 3165.172 1957.484 3165.953 C 1954.099 3168.036 1932.751 3201.361 1925.721 3215.159 C 1922.597 3221.147 1917.13 3227.656 1913.745 3229.218 C 1910.361 3230.78 1905.935 3235.206 1904.112 3238.851 C 1902.29 3242.756 1894.218 3251.608 1886.409 3258.637 C 1878.599 3265.667 1868.705 3275.56 1864.8 3280.507 C 1858.812 3288.317 1837.984 3306.802 1835.641 3306.802 C 1835.12 3306.802 1834.339 3305.24 1833.557 3303.157 Z"/>
    <path d="M 1320.148 3294.045 C 1319.367 3292.743 1321.71 3291.962 1325.355 3292.223 C 1334.467 3293.264 1336.811 3296.388 1328.479 3296.388 C 1324.835 3296.388 1321.19 3295.347 1320.148 3294.045 Z"/>
    <path d="M 1435.483 3278.945 C 1437.306 3278.164 1439.649 3278.424 1440.43 3279.205 C 1441.471 3279.986 1439.909 3280.767 1437.045 3280.507 C 1434.181 3280.507 1433.4 3279.726 1435.483 3278.945 Z"/>
    <path d="M 1633.869 3278.164 C 1633.869 3276.862 1635.692 3275.56 1638.035 3275.56 C 1640.118 3275.56 1641.159 3276.862 1640.378 3278.164 C 1639.597 3279.726 1637.775 3280.767 1636.213 3280.767 C 1634.911 3280.767 1633.869 3279.726 1633.869 3278.164 Z"/>
    <path d="M 1822.883 3274.258 C 1823.924 3272.176 1825.226 3270.353 1826.268 3270.353 C 1827.049 3270.353 1832.256 3266.187 1837.984 3261.241 C 1843.451 3256.294 1848.397 3252.129 1848.918 3252.129 C 1852.042 3252.129 1843.971 3262.282 1837.724 3266.448 C 1833.818 3269.051 1829.392 3272.696 1828.35 3274.779 C 1825.487 3279.465 1821.061 3279.205 1822.883 3274.258 Z"/>
    <path d="M 1347.485 3232.342 C 1342.538 3228.697 1337.852 3224.532 1337.331 3222.709 C 1336.811 3221.147 1338.373 3221.668 1340.716 3224.271 C 1343.319 3226.614 1346.704 3228.697 1348.526 3228.697 C 1350.349 3228.697 1353.994 3231.04 1356.597 3233.904 C 1362.846 3240.934 1358.68 3240.153 1347.485 3232.342 Z"/>
    <path d="M 1842.149 3231.301 C 1842.149 3229.999 1843.451 3228.697 1845.013 3228.697 C 1846.314 3228.697 1846.835 3229.999 1846.054 3231.301 C 1845.273 3232.863 1843.971 3233.904 1843.19 3233.904 C 1842.671 3233.904 1842.149 3232.863 1842.149 3231.301 Z"/>
    <path d="M 1876.776 3219.845 C 1879.12 3218.023 1881.203 3215.419 1881.203 3214.378 C 1881.203 3212.035 1889.272 3205.526 1892.397 3205.266 C 1893.697 3205.266 1890.834 3209.431 1886.148 3214.378 C 1881.203 3219.325 1876.255 3223.49 1874.693 3223.49 C 1873.391 3223.49 1874.172 3221.668 1876.776 3219.845 Z"/>
    <path d="M 1247.25 3215.68 C 1244.647 3212.816 1243.606 3210.473 1244.907 3210.473 C 1246.209 3210.473 1248.812 3212.816 1250.635 3215.68 C 1252.456 3218.544 1253.498 3220.887 1252.977 3220.887 C 1252.456 3220.887 1249.854 3218.544 1247.25 3215.68 Z"/>
    <path d="M 1308.432 3214.378 C 1306.35 3212.035 1306.35 3210.473 1307.912 3210.473 C 1311.036 3210.473 1314.681 3215.419 1312.859 3217.242 C 1312.338 3217.763 1310.255 3216.721 1308.432 3214.378 Z"/>
    <path d="M 1312.338 3207.869 C 1311.557 3206.567 1311.817 3205.266 1313.379 3205.266 C 1314.681 3205.266 1316.764 3206.567 1317.545 3207.869 C 1318.326 3209.431 1318.066 3210.473 1316.503 3210.473 C 1315.202 3210.473 1313.119 3209.431 1312.338 3207.869 Z"/>
    <path d="M 1294.894 3200.059 C 1290.468 3195.633 1287.344 3191.728 1288.125 3190.947 C 1288.646 3190.166 1293.331 3193.81 1298.018 3198.757 C 1308.693 3209.952 1306.35 3210.994 1294.894 3200.059 Z"/>
    <path d="M 1893.438 3200.84 C 1892.656 3199.538 1895.521 3195.112 1899.946 3190.947 L 1908.018 3183.136 L 1903.592 3191.467 C 1899.166 3200.579 1895.259 3203.964 1893.438 3200.84 Z"/>
    <path d="M 1880.161 3186.26 C 1880.942 3183.657 1882.503 3182.355 1883.284 3183.136 C 1884.065 3183.917 1883.284 3186 1881.463 3187.822 C 1878.859 3190.166 1878.599 3189.905 1880.161 3186.26 Z"/>
    <path d="M 1242.564 3179.491 C 1241.523 3175.065 1241.783 3174.024 1243.866 3176.107 C 1245.168 3177.408 1245.949 3180.272 1245.428 3182.095 C 1244.647 3184.177 1243.606 3182.876 1242.564 3179.491 Z"/>
    <path d="M 1855.166 3140.439 C 1855.166 3139.137 1856.988 3136.794 1859.071 3134.971 C 1862.196 3132.368 1862.977 3132.368 1862.977 3135.752 C 1862.977 3137.835 1861.154 3140.178 1859.071 3141.22 C 1856.988 3142 1855.166 3141.74 1855.166 3140.439 Z"/>
    <path d="M 1821.321 3130.285 C 1821.321 3127.161 1826.268 3123.516 1828.09 3125.338 C 1828.611 3125.859 1827.569 3127.942 1825.226 3129.764 C 1822.883 3131.847 1821.321 3131.847 1821.321 3130.285 Z"/>
    <path d="M 1841.109 3097.481 C 1841.89 3095.138 1843.971 3093.316 1845.273 3093.316 C 1848.657 3093.316 1846.575 3099.304 1842.671 3100.604 C 1840.847 3101.125 1840.067 3100.085 1841.109 3097.481 Z"/>
    <path d="M 1993.152 3082.901 C 1993.412 3080.819 1994.974 3076.653 1997.057 3074.05 C 2002.005 3067.541 2002.005 3069.884 1997.057 3079.257 C 1994.974 3083.422 1993.152 3084.984 1993.152 3082.901 Z"/>
    <path d="M 1850.739 3079.517 C 1851.521 3077.695 1853.084 3076.653 1854.646 3076.913 C 1856.208 3077.434 1856.988 3076.132 1856.208 3074.31 C 1855.687 3072.488 1856.729 3068.843 1858.812 3065.979 C 1861.936 3061.813 1862.717 3061.553 1862.977 3064.937 C 1862.977 3067.281 1862.196 3069.884 1861.154 3070.925 C 1860.113 3071.967 1859.071 3074.831 1859.071 3076.913 C 1859.071 3079.257 1856.988 3081.339 1854.384 3081.86 C 1851.781 3082.12 1850.219 3081.079 1850.739 3079.517 Z"/>
    <path d="M 2000.963 3063.375 C 2000.963 3062.074 2002.265 3058.949 2003.567 3056.867 C 2004.869 3054.784 2006.169 3054.263 2006.169 3055.565 C 2006.169 3057.127 2004.869 3059.991 2003.567 3062.074 C 2002.265 3064.156 2000.963 3064.937 2000.963 3063.375 Z"/>
    <path d="M 1865.581 3054.523 C 1865.581 3052.961 1866.622 3051.139 1868.184 3050.358 C 1869.746 3049.577 1870.007 3050.618 1869.225 3052.701 C 1867.403 3057.387 1865.581 3058.168 1865.581 3054.523 Z"/>
    <path d="M 2006.169 3051.139 C 2006.169 3050.098 2007.471 3046.192 2009.032 3042.027 C 2010.594 3038.121 2013.98 3026.666 2016.843 3016.512 L 2021.79 2998.288 L 2020.228 3012.607 C 2018.666 3026.666 2012.677 3045.411 2008.252 3050.358 C 2007.211 3051.66 2006.169 3051.92 2006.169 3051.139 Z"/>
    <path d="M 1872.35 3043.068 C 1873.131 3040.465 1874.693 3039.163 1875.474 3039.944 C 1876.255 3040.725 1875.474 3042.808 1873.651 3044.63 C 1871.048 3046.973 1870.788 3046.713 1872.35 3043.068 Z"/>
    <path d="M 1956.703 3033.435 C 1956.703 3032.133 1958.005 3030.832 1959.568 3030.832 C 1960.87 3030.832 1961.39 3032.133 1960.609 3033.435 C 1959.828 3034.997 1958.526 3036.039 1957.745 3036.039 C 1957.224 3036.039 1956.703 3034.997 1956.703 3033.435 Z"/>
    <path d="M 1985.602 3010.785 C 1985.341 3007.4 1987.684 2998.028 1990.548 2989.436 C 1993.672 2981.104 1997.578 2962.62 1999.401 2948.561 C 2001.484 2933.982 2003.046 2927.213 2003.305 2933.201 C 2003.305 2938.928 2001.744 2952.987 1999.922 2964.442 C 1995.755 2987.874 1985.862 3019.637 1985.602 3010.785 Z"/>
    <path d="M 2019.187 2993.602 C 2019.187 2991.519 2019.967 2989.176 2021.009 2988.134 C 2022.05 2987.093 2022.832 2983.708 2023.092 2980.583 C 2023.092 2977.46 2024.394 2974.857 2025.696 2974.857 C 2028.299 2974.857 2028.299 2986.833 2025.956 2993.602 C 2024.133 2998.028 2019.187 2998.028 2019.187 2993.602 Z"/>
    <path d="M 2000.963 2986.051 C 2000.963 2984.229 2002.265 2980.845 2003.826 2978.762 C 2006.169 2975.377 2006.43 2975.638 2005.128 2979.543 C 2004.347 2981.886 2004.869 2983.969 2006.169 2983.969 C 2007.731 2983.969 2008.773 2985.27 2008.773 2986.572 C 2008.773 2988.134 2006.95 2989.176 2004.869 2989.176 C 2002.786 2989.176 2000.963 2987.614 2000.963 2986.051 Z"/>
    <path d="M 1987.164 2948.822 C 1987.945 2940.229 1988.986 2932.68 1989.507 2932.159 C 1991.329 2930.076 1990.028 2951.425 1987.945 2957.934 C 1986.643 2962.099 1986.383 2958.454 1987.164 2948.822 Z"/>
    <path d="M 2011.636 2955.07 C 2011.376 2952.727 2010.594 2946.739 2009.814 2942.052 C 2008.773 2935.283 2009.032 2934.242 2011.115 2937.106 C 2013.718 2940.49 2013.98 2940.49 2013.98 2937.106 C 2013.98 2935.023 2014.76 2930.337 2015.801 2926.952 C 2016.843 2922.526 2016.583 2921.224 2014.5 2922.526 C 2010.075 2925.13 2010.335 2895.71 2015.021 2884.776 C 2018.405 2876.965 2018.666 2876.705 2020.228 2881.912 C 2022.571 2889.202 2019.708 2926.171 2015.28 2944.916 C 2013.459 2952.727 2011.636 2957.413 2011.636 2955.07 Z"/>
    <path d="M 2028.559 2948.301 C 2030.642 2934.242 2031.684 2931.378 2034.808 2933.201 C 2036.109 2933.982 2037.411 2932.94 2037.411 2930.857 C 2037.411 2928.514 2035.849 2926.952 2034.287 2927.473 C 2032.204 2927.733 2031.163 2925.911 2031.684 2922.787 C 2031.944 2919.923 2032.465 2903.521 2032.725 2886.338 C 2032.725 2869.155 2033.506 2857.439 2034.027 2860.303 C 2034.808 2863.167 2036.63 2866.812 2037.932 2868.113 C 2040.016 2869.936 2040.276 2869.675 2038.974 2867.593 C 2037.932 2865.51 2038.714 2864.208 2040.797 2864.208 C 2042.619 2864.208 2045.742 2867.072 2047.305 2870.717 C 2051.21 2879.048 2051.469 2904.822 2047.825 2907.166 C 2046.523 2907.947 2045.222 2913.154 2045.222 2918.361 C 2045.222 2923.568 2043.399 2931.378 2041.318 2935.544 C 2039.234 2939.449 2037.411 2944.656 2037.411 2946.478 C 2037.411 2948.561 2036.37 2950.123 2034.808 2950.123 C 2033.506 2950.123 2032.204 2951.946 2032.204 2954.029 C 2032.204 2956.111 2031.163 2957.934 2029.861 2957.934 C 2028.299 2957.934 2028.039 2953.508 2028.559 2948.301 Z"/>
    <path d="M 2053.031 2918.361 C 2053.031 2907.686 2055.114 2900.657 2058.238 2900.657 C 2060.842 2900.657 2058.238 2922.006 2055.375 2925.39 C 2054.073 2926.692 2053.031 2923.828 2053.031 2918.361 Z"/>
    <path d="M 2066.05 2896.491 C 2066.05 2892.326 2067.351 2887.119 2068.914 2885.036 C 2070.736 2882.172 2070.996 2883.994 2069.695 2891.545 C 2067.612 2904.562 2066.05 2906.645 2066.05 2896.491 Z"/>
    <path d="M 1031.421 2878.527 C 1037.148 2859.261 1043.657 2845.723 1045.74 2848.847 C 1047.042 2850.93 1046.521 2854.054 1044.438 2856.398 C 1042.355 2858.479 1038.45 2865.51 1035.326 2872.018 C 1032.202 2878.527 1030.379 2881.391 1031.421 2878.527 Z"/>
    <path d="M 1097.81 2855.096 C 1098.07 2850.149 1102.496 2841.818 1102.496 2845.984 C 1102.496 2848.066 1101.455 2851.711 1100.153 2853.794 C 1098.851 2855.877 1097.81 2856.658 1097.81 2855.096 Z"/>
    <path d="M 1136.862 2796.517 C 1140.507 2788.446 1141.809 2787.145 1141.809 2790.269 C 1141.809 2791.831 1139.986 2795.215 1137.643 2798.079 C 1133.998 2802.766 1133.998 2802.766 1136.862 2796.517 Z"/>
    <path d="M 1128.791 2796.778 C 1128.791 2795.476 1130.093 2793.393 1131.394 2792.612 C 1132.956 2791.831 1133.998 2792.091 1133.998 2793.653 C 1133.998 2794.955 1132.956 2797.038 1131.394 2797.819 C 1130.093 2798.6 1128.791 2798.34 1128.791 2796.778 Z"/>
    <path d="M 1133.998 2787.926 C 1133.998 2787.145 1138.164 2780.375 1143.111 2772.825 C 1148.057 2765.015 1152.223 2760.589 1152.223 2762.932 C 1152.223 2765.015 1150.4 2769.18 1148.317 2772.044 C 1143.111 2778.813 1143.371 2782.458 1148.838 2778.032 C 1152.744 2774.648 1152.744 2774.908 1149.359 2780.375 C 1147.276 2783.5 1145.193 2784.801 1144.673 2783.239 C 1144.152 2781.677 1141.809 2782.458 1138.945 2785.062 C 1136.341 2787.405 1133.998 2788.967 1133.998 2787.926 Z"/>
    <path d="M 1009.031 2779.594 C 1009.291 2778.032 1010.852 2774.127 1013.196 2770.482 L 1017.101 2763.973 L 1015.279 2770.482 C 1013.456 2777.25 1009.031 2784.02 1009.031 2779.594 Z"/>
    <path d="M 1183.725 2730.128 C 1186.849 2722.578 1197.263 2707.998 1199.867 2707.998 C 1201.689 2707.998 1201.689 2709.04 1199.606 2711.122 C 1197.784 2712.945 1196.482 2715.809 1196.482 2717.892 C 1196.482 2721.016 1197.263 2721.016 1200.388 2718.412 C 1202.47 2716.59 1204.293 2713.726 1204.293 2711.904 C 1204.293 2710.081 1206.115 2707.217 1208.198 2705.395 C 1210.541 2703.572 1211.843 2700.448 1211.062 2698.365 C 1210.019 2696.021 1210.8 2695.502 1212.364 2696.543 C 1213.925 2697.324 1218.091 2694.981 1221.476 2690.815 C 1224.86 2686.65 1227.464 2684.567 1227.724 2686.129 C 1227.724 2688.732 1199.867 2724.14 1193.618 2729.607 C 1192.317 2730.649 1192.577 2730.128 1193.879 2728.306 C 1199.346 2721.797 1196.222 2720.495 1189.713 2726.483 C 1185.808 2729.868 1183.204 2731.69 1183.725 2730.128 Z"/>
    <path d="M 1802.055 2693.158 C 1800.494 2689.513 1800.753 2689.253 1803.357 2691.596 C 1805.179 2693.419 1805.96 2695.502 1805.179 2696.283 C 1804.398 2697.064 1802.836 2695.762 1802.055 2693.158 Z"/>
    <path d="M 1230.328 2690.034 C 1230.328 2688.732 1232.15 2686.389 1234.233 2684.567 C 1236.316 2683.005 1237.618 2680.141 1237.357 2678.579 C 1237.097 2677.017 1244.647 2670.248 1254.019 2663.739 C 1263.392 2657.229 1276.67 2648.118 1283.439 2643.692 C 1290.208 2639.006 1296.196 2635.1 1296.717 2635.1 C 1296.977 2635.1 1304.267 2631.195 1312.859 2626.509 C 1340.976 2610.628 1360.242 2603.859 1400.857 2595.788 C 1408.146 2594.486 1419.081 2592.143 1425.59 2590.581 C 1448.24 2585.894 1495.884 2583.551 1506.038 2586.936 C 1510.203 2588.238 1511.765 2588.238 1510.724 2586.415 C 1509.162 2584.072 1524.523 2586.415 1549.776 2592.143 C 1553.942 2593.184 1555.244 2592.403 1554.463 2590.06 C 1553.421 2587.977 1555.504 2586.675 1559.67 2586.155 C 1563.835 2585.894 1566.178 2586.936 1566.178 2589.539 C 1566.178 2592.143 1572.687 2594.486 1587.006 2597.61 C 1598.462 2600.214 1607.314 2602.557 1606.793 2603.338 C 1606.272 2603.859 1596.379 2602.557 1585.184 2600.214 C 1540.144 2591.362 1478.441 2588.498 1439.388 2593.445 C 1416.478 2596.569 1376.123 2605.16 1364.408 2609.586 C 1330.042 2622.604 1276.149 2653.584 1250.894 2675.194 C 1234.233 2689.513 1230.328 2692.377 1230.328 2690.034 Z M 1248.552 2674.153 C 1248.552 2672.851 1248.031 2671.549 1247.511 2671.549 C 1246.73 2671.549 1245.428 2672.851 1244.647 2674.153 C 1243.866 2675.715 1244.387 2676.756 1245.688 2676.756 C 1247.25 2676.756 1248.552 2675.715 1248.552 2674.153 Z"/>
    <path d="M 1950.194 2650.461 C 1949.153 2648.899 1948.892 2647.337 1949.673 2646.556 C 1950.194 2645.775 1951.496 2647.077 1952.277 2649.42 C 1954.099 2653.846 1952.537 2654.626 1950.194 2650.461 Z"/>
    <path d="M 1074.118 2637.964 C 1074.118 2636.402 1075.159 2634.58 1076.722 2633.799 C 1078.284 2633.018 1078.544 2634.059 1077.763 2636.142 C 1075.941 2640.828 1074.118 2641.609 1074.118 2637.964 Z"/>
    <path d="M 1680.732 2631.195 C 1667.975 2624.426 1668.756 2622.864 1682.294 2627.811 C 1687.241 2629.373 1691.667 2632.497 1692.188 2634.319 C 1694.01 2638.485 1694.791 2638.745 1680.732 2631.195 Z"/>
    <path d="M 1940.3 2630.675 C 1939.259 2629.893 1938.478 2627.811 1938.478 2626.249 C 1938.478 2624.687 1939.779 2624.947 1941.603 2626.769 C 1943.165 2628.331 1943.946 2630.414 1943.425 2631.195 C 1942.644 2631.976 1941.082 2631.716 1940.3 2630.675 Z"/>
    <path d="M 1655.999 2620.781 C 1651.833 2618.958 1650.011 2617.136 1652.094 2617.136 C 1654.177 2617.136 1658.863 2618.698 1662.508 2620.781 C 1670.839 2625.468 1666.153 2625.468 1655.999 2620.781 Z"/>
    <path d="M 1925.201 2620.261 C 1921.817 2616.095 1922.076 2615.834 1926.242 2619.219 C 1930.407 2622.604 1931.709 2624.687 1929.627 2624.687 C 1929.106 2624.687 1927.023 2622.604 1925.201 2620.261 Z"/>
    <path d="M 1627.361 2611.147 C 1618.769 2608.024 1613.041 2605.16 1614.603 2604.64 C 1617.728 2603.598 1646.887 2613.751 1646.887 2615.834 C 1646.887 2617.396 1644.023 2616.875 1627.361 2611.147 Z"/>
    <path d="M 1540.144 2577.563 C 1532.333 2576.521 1519.576 2575.741 1512.026 2575.479 C 1503.434 2575.22 1498.748 2574.179 1499.789 2572.617 C 1500.57 2571.054 1505.777 2570.534 1510.984 2571.314 C 1516.191 2572.096 1528.688 2573.137 1538.321 2573.658 C 1548.214 2574.179 1556.806 2575.22 1557.327 2576 C 1560.19 2578.865 1553.942 2579.386 1540.144 2577.563 Z"/>
    <path d="M 1566.959 2578.604 C 1569.303 2578.083 1572.947 2578.083 1574.77 2578.604 C 1576.332 2579.386 1574.51 2579.906 1570.084 2579.906 C 1565.918 2579.906 1564.356 2579.386 1566.959 2578.604 Z"/>
    <path d="M 1460.216 2573.397 C 1462.559 2572.876 1466.725 2572.876 1469.328 2573.397 C 1471.672 2574.179 1469.589 2574.699 1464.642 2574.699 C 1459.696 2574.699 1457.613 2574.179 1460.216 2573.397 Z"/>
    <path d="M 1825.487 2568.711 C 1822.623 2566.629 1821.061 2564.285 1821.842 2563.504 C 1822.362 2562.723 1825.226 2564.546 1827.83 2567.41 C 1833.297 2573.397 1832.516 2573.917 1825.487 2568.711 Z"/>
    <path d="M 1805.7 2551.789 C 1803.357 2550.227 1803.096 2549.185 1804.919 2549.185 C 1806.481 2549.185 1808.823 2550.487 1809.605 2551.789 C 1811.688 2554.913 1810.647 2554.913 1805.7 2551.789 Z"/>
    <path d="M 1649.49 2400.786 L 1642.982 2398.703 L 1650.011 2398.443 C 1653.916 2398.182 1657.821 2399.484 1658.603 2400.786 C 1660.425 2403.65 1658.603 2403.65 1649.49 2400.786 Z"/>
    <path d="M 1629.964 2395.579 C 1625.017 2393.496 1625.017 2393.236 1630.485 2393.236 C 1633.609 2392.976 1636.994 2394.277 1637.775 2395.579 C 1639.597 2398.703 1637.254 2398.703 1629.964 2395.579 Z"/>
    <path d="M 1613.041 2392.976 C 1609.657 2390.893 1609.657 2390.372 1613.562 2390.372 C 1615.905 2390.372 1618.769 2391.674 1619.55 2392.976 C 1621.633 2396.36 1618.248 2396.36 1613.041 2392.976 Z"/>
    <path d="M 1414.655 2383.343 C 1416.217 2382.822 1419.341 2382.822 1421.164 2383.343 C 1422.726 2384.124 1421.424 2384.644 1417.779 2384.644 C 1414.134 2384.644 1412.833 2384.124 1414.655 2383.343 Z"/>
  </g>
  <text x="615.825" y="1204.269" transform="matrix(1.199406, 0, 0, 1.199405, -575.730896, -1309.590454)" style="font-family: Bitter; font-size: 86.3px; white-space: pre;">Zenkom</text>
</svg>