<?xml version="1.0" encoding="utf-8"?>
<svg width="500pt" height="500pt" viewBox="64 -19 500 500" preserveAspectRatio="xMidYMid meet" xmlns="http://www.w3.org/2000/svg">
  <g transform="matrix(0.1, 0, 0, -0.1, 9.934433, 453.655731)" fill="#000000" stroke="none">
    <path d="M2820 4374 c-101 -15 -160 -27 -160 -33 0 -4 -16 -13 -36 -19 -30 -9&#10;-33 -8 -23 4 15 19 13 18 -88 -15 -322 -106 -565 -260 -803 -510 -78 -82 -152&#10;-162 -164 -178 -24 -32 -60 -66 -110 -106 -20 -16 -41 -39 -48 -52 -7 -13 -59&#10;-91 -115 -173 -127 -186 -147 -239 -140 -365 3 -51 11 -97 20 -110 21 -33 27&#10;-76 11 -79 -12 -2 -12 -7 -1 -28 16 -30 17 -34 17 -60 0 -10 8 -27 18 -37 11&#10;-10 27 -33 38 -51 11 -19 32 -37 51 -44 18 -7 33 -16 33 -20 0 -18 94 -67 139&#10;-73 54 -7 150 3 131 15 -7 4 11 18 45 36 32 15 78 46 103 69 58 51 134 154&#10;127 172 -2 8 2 28 11 45 9 16 11 27 5 24 -18 -11 -13 9 14 55 28 50 32 67 10&#10;49 -21 -17 -32 -4 -17 20 7 11 12 37 12 59 0 24 8 48 22 66 12 15 22 36 23 45&#10;1 10 9 30 19 45 28 43 11 40 -24 -5 -48 -60 -49 -41 -1 39 52 88 82 157 75&#10;175 -3 9 6 19 25 27 17 8 29 19 27 26 -9 23 92 108 179 151 87 44 105 57 59&#10;46 -42 -11 -19 15 35 39 25 11 51 26 56 34 6 7 19 15 30 17 11 2 46 11 78 21&#10;31 9 63 15 69 13 7 -3 -9 -11 -35 -18 -26 -8 -47 -19 -47 -25 0 -10 -60 -55&#10;-73 -55 -10 0 -119 -85 -146 -114 -39 -42 -14 -30 47 23 78 67 117 87 105 54&#10;-5 -14 0 -12 21 6 18 17 29 22 37 14 7 -7 -17 -30 -78 -73 -119 -85 -167 -137&#10;-182 -196 -7 -26 -24 -67 -38 -92 -25 -43 -25 -44 -4 -31 12 8 36 37 53 64 17&#10;28 58 77 92 111 68 66 156 131 156 114 0 -5 -4 -10 -9 -10 -19 0 -61 -54 -56&#10;-72 4 -10 2 -18 -3 -18 -6 0 -13 -7 -16 -15 -5 -14 -1 -13 24 2 17 9 30 24 30&#10;31 0 9 6 12 16 8 11 -4 31 7 58 32 80 74 281 164 391 176 97 10 170 15 150 9&#10;-11 -3 -25 -9 -31 -14 -7 -5 -30 -11 -52 -13 -63 -7 -157 -39 -136 -47 10 -3&#10;37 3 61 13 30 13 78 20 168 25 69 3 128 9 130 13 2 4 30 3 62 -1 32 -4 59 -6&#10;62 -3 2 2 -1 4 -7 4 -7 0 -12 5 -12 11 0 6 9 8 20 4 11 -3 20 -2 20 3 0 5 -9&#10;12 -20 15 -13 3 -18 10 -14 21 7 17 28 19 59 6 17 -7 16 -9 -9 -9 -50 -2 -18&#10;-14 42 -17 39 -2 51 0 37 6 -19 8 -19 9 3 9 12 1 22 -3 22 -9 0 -10 39 -22&#10;140 -43 36 -7 64 -18 63 -24 -1 -6 12 -14 30 -17 23 -5 28 -9 18 -15 -11 -7&#10;-9 -10 9 -16 12 -4 33 -8 46 -10 13 -1 35 -10 49 -19 25 -17 26 -18 8 -31 -17&#10;-13 -16 -14 12 -27 17 -7 55 -29 85 -49 30 -19 67 -39 83 -42 15 -4 27 -12 27&#10;-17 0 -6 9 -10 19 -10 22 0 40 -19 19 -21 -7 -1 -2 -4 12 -8 15 -4 24 -14 24&#10;-24 -1 -10 5 -17 16 -17 25 0 70 -38 70 -60 0 -11 11 -22 30 -28 16 -6 42 -26&#10;59 -44 16 -18 33 -30 37 -26 12 12 -16 66 -38 71 -11 3 -17 10 -13 17 4 7 19&#10;-1 43 -21 36 -32 100 -64 109 -55 2 2 -8 10 -23 18 -32 15 -46 42 -17 31 45&#10;-16 -198 222 -252 247 -22 10 -74 43 -115 75 -41 31 -86 61 -99 66 -13 5 -21&#10;12 -18 15 8 9 65 -24 142 -82 79 -59 104 -71 53 -24 -18 16 -30 30 -26 30 10&#10;0 167 -138 319 -281 125 -119 140 -137 190 -230 30 -56 71 -133 93 -173 21&#10;-39 42 -84 47 -101 4 -16 15 -50 24 -74 22 -61 12 -76 -13 -20 -11 26 -25 50&#10;-31 53 -14 9 -14 5 -1 -31 l10 -28 -20 25 c-24 30 -25 23 -4 -29 9 -22 14 -48&#10;12 -58 -4 -20 -40 63 -58 135 -6 24 -20 52 -31 63 -10 10 -19 24 -19 29 0 15&#10;-72 121 -78 115 -3 -2 8 -24 24 -47 16 -24 32 -54 36 -68 3 -14 16 -51 28 -84&#10;11 -32 18 -61 14 -65 -4 -3 -9 0 -11 7 -3 6 -9 10 -14 6 -5 -3 -9 0 -9 5 0 6&#10;-8 11 -18 11 -14 0 -19 -8 -19 -30 0 -16 4 -30 8 -30 5 0 6 -7 2 -15 -3 -9 2&#10;-24 12 -35 9 -10 14 -23 11 -28 -5 -9 8 -60 25 -94 13 -26 20 -160 9 -153 -6&#10;4 -10 15 -10 26 0 66 -72 271 -104 298 -9 7 -16 22 -16 32 0 11 -4 19 -9 19&#10;-4 0 -21 26 -36 58 -36 77 -81 160 -95 177 -7 9 -8 15 0 20 5 3 10 1 10 -6 0&#10;-7 2 -10 6 -7 12 12 -113 186 -194 270 -140 145 -364 298 -437 298 -11 0 -30&#10;7 -42 15 -12 8 -52 19 -91 25 -77 11 -102 18 -102 30 0 5 -9 8 -20 7 -11 -1&#10;-20 -4 -20 -7 0 -8 72 -38 105 -44 36 -6 69 -20 110 -45 17 -11 37 -20 45 -20&#10;9 -1 33 -10 55 -21 22 -11 47 -20 57 -20 24 0 88 -32 83 -41 -3 -4 15 -15 40&#10;-25 46 -17 59 -34 28 -34 -11 -1 -3 -9 19 -20 20 -11 58 -43 85 -71 26 -29 64&#10;-68 84 -88 20 -20 39 -44 42 -54 4 -9 13 -20 22 -22 54 -17 52 -15 33 -26 -17&#10;-9 -16 -12 7 -37 14 -15 25 -32 25 -38 0 -7 7 -15 16 -18 9 -4 14 -9 11 -13&#10;-4 -3 16 -49 44 -101 27 -53 62 -126 76 -162 14 -36 31 -78 38 -95 34 -78 62&#10;-217 71 -355 16 -223 -64 -537 -174 -688 -79 -108 -78 -107 -64 -98 50 31 -99&#10;-134 -175 -193 -86 -67 -149 -111 -160 -111 -7 0 -48 -18 -90 -40 -80 -41&#10;-229 -95 -343 -125 -36 -10 -76 -21 -90 -26 -75 -25 -496 -33 -620 -11 -41 8&#10;-105 22 -142 33 -36 10 -72 19 -80 19 -17 0 -44 12 -167 72 -198 98 -284 161&#10;-454 333 -128 129 -147 150 -147 162 0 6 -7 16 -15 23 -9 7 -13 20 -10 27 5&#10;15 -9 49 -32 71 -20 20 -15 0 7 -28 24 -31 26 -47 3 -29 -10 9 -6 -4 11 -33&#10;15 -27 23 -48 17 -48 -6 0 -16 10 -22 23 -7 12 -20 31 -30 42 -65 73 -101 126&#10;-168 243 -23 39 -44 72 -46 72 -6 0 10 -40 36 -92 l21 -43 -37 40 c-21 22 -34&#10;33 -29 25 14 -26 58 -84 77 -100 17 -15 57 -111 57 -138 0 -8 16 -34 36 -58&#10;22 -27 31 -44 23 -44 -8 0 -48 51 -89 112 -41 62 -80 118 -86 123 -6 6 -14 22&#10;-18 38 -4 15 -13 27 -21 27 -7 0 -16 9 -20 19 -3 11 -12 25 -21 31 -12 11 -13&#10;10 -6 -6 20 -48 70 -143 95 -179 15 -22 27 -46 27 -54 0 -8 9 -24 19 -35 20&#10;-22 44 -60 82 -131 12 -22 44 -68 71 -102 27 -35 46 -63 41 -63 -10 1 -101&#10;117 -165 213 -27 38 -54 75 -62 81 -15 12 -86 125 -119 189 -10 20 -21 37 -24&#10;37 -5 0 2 -35 14 -66 4 -12 3 -15 -6 -10 -8 5 -6 -6 5 -31 9 -21 22 -56 29&#10;-78 18 -57 72 -152 125 -221 62 -81 82 -114 70 -114 -6 0 -14 8 -17 17 -4 10&#10;-12 22 -20 26 -12 8 -73 86 -118 152 -49 72 -135 213 -135 221 0 5 -15 28 -33&#10;50 -17 23 -37 50 -44 60 -10 17 -11 16 -7 -6 2 -14 -14 11 -36 55 -21 44 -40&#10;75 -40 68 0 -18 56 -169 90 -241 31 -65 36 -82 22 -82 -4 0 -14 17 -22 37 -15&#10;43 -70 134 -70 117 0 -5 4 -14 9 -20 5 -5 26 -49 46 -99 19 -49 44 -101 53&#10;-115 10 -14 29 -47 42 -75 13 -27 32 -62 42 -77 20 -30 22 -38 8 -38 -15 0&#10;-107 145 -170 268 -18 35 -34 61 -37 58 -7 -6 92 -197 142 -276 25 -39 45 -75&#10;45 -80 0 -6 7 -13 15 -16 8 -4 15 -10 15 -16 0 -5 30 -48 68 -94 37 -47 68&#10;-90 70 -97 3 -12 -21 14 -59 62 -11 13 -22 22 -25 18 -8 -8 25 -67 42 -74 7&#10;-3 14 -11 14 -19 0 -8 7 -14 15 -14 8 0 19 -9 25 -20 6 -11 8 -20 5 -20 -3 0&#10;11 -17 32 -39 21 -21 56 -59 78 -85 22 -26 58 -57 80 -71 22 -13 56 -38 75&#10;-55 l35 -31 -32 16 c-75 36 -296 244 -400 376 -56 71 -71 71 -18 -1 50 -68 30&#10;-64 -25 6 -25 31 -54 65 -66 77 -26 28 -110 156 -126 194 -6 15 -19 37 -29 48&#10;-9 11 -40 66 -69 123 -28 56 -54 102 -57 102 -14 0 18 -83 84 -215 20 -38 37&#10;-79 38 -90 1 -11 3 -24 4 -28 0 -5 5 -5 11 -2 12 8 52 -56 45 -73 -3 -7 0 -22&#10;5 -33 7 -13 7 -19 1 -19 -6 0 -20 17 -31 37 -11 21 -31 56 -45 78 -14 22 -28&#10;47 -31 55 -4 8 -24 52 -45 98 -22 46 -39 92 -39 102 0 10 -13 53 -30 95 -16&#10;42 -34 101 -41 131 -7 30 -16 57 -21 60 -5 3 -7 -5 -4 -18 46 -215 60 -270 76&#10;-305 11 -24 20 -51 20 -62 0 -11 5 -21 11 -23 6 -2 12 -16 12 -31 0 -15 5 -27&#10;11 -27 14 0 46 -83 46 -117 0 -13 11 -30 25 -39 14 -9 29 -33 35 -56 6 -21 19&#10;-42 28 -45 21 -7 51 -43 52 -60 0 -19 70 -107 91 -115 18 -7 24 -25 20 -56 -1&#10;-8 7 -16 18 -19 12 -3 21 -8 21 -12 0 -4 27 -36 60 -71 33 -36 57 -56 53 -45&#10;-6 18 -5 19 13 5 10 -8 44 -38 74 -67 61 -57 129 -113 139 -113 3 0 22 -14 41&#10;-30 19 -16 40 -30 45 -30 6 0 27 -11 47 -25 64 -43 128 -74 143 -69 8 3 31 -8&#10;52 -25 21 -17 44 -31 51 -31 7 0 26 -7 41 -15 47 -24 161 -65 161 -57 0 4 -17&#10;15 -38 24 -20 10 -28 15 -17 12 11 -4 65 -18 120 -31 55 -14 138 -36 185 -49&#10;169 -50 315 -58 593 -35 416 34 815 171 1106 381 30 21 59 36 65 33 6 -3 8 -3&#10;4 2 -4 4 14 24 40 45 26 20 67 58 92 84 25 26 56 52 69 57 14 6 21 15 18 23&#10;-6 15 25 50 35 41 3 -3 3 6 0 21 -3 19 -1 25 6 20 7 -4 10 -2 6 7 -6 16 18 39&#10;36 35 7 -2 15 3 18 11 3 8 0 11 -7 7 -19 -12 -13 2 24 55 32 47 42 69 31 69&#10;-3 0 -21 -27 -41 -60 -20 -33 -41 -60 -46 -60 -5 0 -9 -7 -9 -15 0 -8 -2 -15&#10;-4 -15 -2 0 -12 -3 -22 -7 -15 -6 -14 -1 6 28 13 19 35 46 48 61 14 15 23 30&#10;20 34 -3 3 -21 -15 -39 -40 -18 -25 -36 -46 -40 -46 -11 0 0 32 15 45 15 14&#10;37 54 41 74 2 9 12 32 24 51 39 66 68 125 74 153 4 15 12 27 17 27 6 0 10 6&#10;10 13 0 7 5 18 12 25 10 10 20 52 11 52 -1 0 -9 -16 -18 -36 -8 -19 -19 -33&#10;-23 -30 -5 3 -22 -18 -37 -47 -50 -91 -61 -111 -94 -159 -18 -27 -38 -48 -44&#10;-48 -7 0 -22 -16 -35 -36 -12 -19 -27 -32 -31 -29 -5 2 -15 -3 -22 -12 -12&#10;-14 -12 -16 0 -9 9 6 12 5 9 -5 -3 -8 -12 -14 -20 -14 -9 0 -26 -12 -37 -27&#10;-22 -28 -164 -138 -178 -138 -4 0 -28 -14 -53 -31 -50 -33 -131 -77 -115 -61&#10;6 5 33 25 61 43 28 19 52 37 53 41 1 4 45 49 97 100 113 110 294 347 294 385&#10;0 5 9 18 20 28 24 22 62 101 149 310 39 92 101 372 112 504 11 122 4 268 -14&#10;311 -5 14 -9 33 -8 43 3 26 -19 88 -30 81 -5 -3 -18 14 -29 38 -17 37 -20 39&#10;-16 13 6 -35 -29 37 -76 155 -69 177 -117 290 -149 346 -16 28 -29 58 -29 65&#10;0 8 -42 64 -94 124 -52 61 -92 113 -89 118 2 4 1 7 -4 6 -19 -3 -27 2 -14 10&#10;10 7 7 13 -14 27 -15 11 -46 35 -69 55 -22 19 -56 45 -73 58 -18 12 -33 30&#10;-33 38 0 9 -3 13 -7 10 -3 -4 -12 -2 -20 5 -7 6 -16 9 -18 6 -3 -2 23 -27 58&#10;-55 65 -54 136 -123 124 -123 -16 0 -97 56 -97 67 0 7 -7 13 -15 13 -8 0 -22&#10;11 -31 25 -9 14 -22 25 -30 25 -7 0 -17 6 -21 13 -4 7 -19 18 -33 25 -14 6&#10;-32 16 -40 21 -8 5 -28 15 -44 22 -50 24 -68 33 -151 75 -44 23 -96 45 -115&#10;48 -49 10 -90 27 -90 37 0 10 39 3 87 -17 17 -7 40 -10 50 -8 37 10 120 -29&#10;270 -128 60 -39 96 -40 47 -1 -30 24 -137 88 -239 143 -62 33 -83 48 -52 37 9&#10;-4 17 -5 17 -3 0 9 -80 50 -130 67 l-55 18 50 -6 c28 -3 70 -14 94 -24 24 -10&#10;55 -19 70 -18 22 0 19 4 -22 24 -60 28 -70 38 -32 31 61 -12 -46 32 -180 75&#10;-150 47 -178 64 -90 54 65 -8 200 -50 363 -114 68 -26 102 -35 102 -27 0 7&#10;-12 18 -26 24 -14 7 -22 16 -19 22 6 10 -41 26 -64 21 -8 -1 -21 5 -27 14 -7&#10;9 -24 18 -38 19 -14 0 -26 5 -26 9 0 10 55 -1 90 -18 32 -15 119 -39 125 -34&#10;2 3 -32 21 -75 40 l-80 35 53 -1 c29 -1 72 -10 98 -22 26 -11 66 -24 90 -27&#10;l44 -6 -55 29 c-30 16 -81 40 -112 52 -32 12 -58 27 -58 34 0 8 8 11 20 8 11&#10;-3 17 -9 14 -14 -3 -5 6 -9 20 -9 14 0 26 -4 26 -10 0 -5 8 -10 18 -10 10 0&#10;22 -4 27 -9 15 -13 79 -25 71 -13 -10 17 -318 134 -360 137 -52 4 -99 22 -91&#10;35 3 5 3 10 -2 10 -25 0 -161 33 -182 45 -46 24 -197 38 -409 39 -216 1 -264&#10;-3 -347 -28 -27 -8 -106 -31 -175 -50 -69 -19 -134 -38 -145 -41 l-20 -7 20&#10;14 c11 8 41 20 67 28 26 7 46 16 43 20 -3 4 5 11 18 14 82 23 218 56 252 60&#10;22 2 54 7 70 10 17 3 64 8 105 11 122 8 205 16 209 21 5 5 -323 3 -359 -2z&#10;m-395 -124 c-3 -5 -11 -10 -16 -10 -6 0 -7 5 -4 10 3 6 11 10 16 10 6 0 7 -4&#10;4 -10z m-68 -31 c-22 -11 -41 -18 -44 -15 -4 3 9 12 28 20 50 22 60 18 16 -5z&#10;m1198 -254 l30 -14 -30 6 c-16 3 -37 9 -45 14 -27 15 11 10 45 -6z m-695 -15&#10;c-8 -5 -35 -9 -60 -9 -34 0 -40 2 -25 9 29 13 104 13 85 0z m775 -10 l20 -9&#10;-20 0 c-11 0 -27 4 -35 9 -13 9 -13 10 0 9 8 0 24 -4 35 -9z m236 -307 c44&#10;-22 139 -82 139 -89 0 -6 -69 30 -113 58 -19 13 -43 28 -53 35 -28 18 -12 15&#10;27 -4z m-1096 -13 c-3 -5 -11 -10 -16 -10 -6 0 -7 5 -4 10 3 6 11 10 16 10 6&#10;0 7 -4 4 -10z m-65 -28 c0 -12 -79 -47 -87 -39 -3 4 3 9 13 13 10 3 30 12 44&#10;19 30 17 30 17 30 7z m1284 -193 c50 -29 45 -34 -6 -8 -50 25 -55 29 -40 29 6&#10;0 27 -9 46 -21z m296 -434 c7 -8 8 -15 2 -15 -5 0 -15 7 -22 15 -7 8 -8 15 -2&#10;15 5 0 15 -7 22 -15z m442 -187 c9 -27 13 -48 8 -48 -5 0 -14 18 -20 40 -6 21&#10;-15 42 -20 45 -9 6 -60 108 -60 121 0 18 77 -115 92 -158z m-3562 57 c0 -8 -2&#10;-15 -4 -15 -2 0 -6 7 -10 15 -3 8 -1 15 4 15 6 0 10 -7 10 -15z m3662 -757 c0&#10;-62 -5 -125 -10 -140 -6 -14 -16 -55 -22 -90 -6 -34 -34 -116 -61 -181 -32&#10;-74 -48 -125 -44 -137 10 -30 -69 -175 -142 -260 -55 -65 -137 -149 -141 -145&#10;-3 3 16 32 41 65 26 33 47 63 47 68 0 4 18 34 40 67 22 33 40 64 40 69 0 4 21&#10;40 48 80 36 54 56 100 84 196 21 70 37 147 38 176 0 54 16 114 30 114 11 0 28&#10;83 36 173 3 38 8 66 11 63 3 -2 5 -56 5 -118z m-2963 -736 c22 -18 41 -41 41&#10;-50 0 -10 -28 11 -75 58 -41 41 -75 79 -75 85 0 5 15 -6 34 -25 18 -19 52 -50&#10;75 -68z m2440 -69 c-54 -58 -93 -92 -104 -93 -5 0 22 31 60 70 70 70 107 90&#10;44 23z m-2304 -231 c-7 -8 -175 151 -175 165 0 4 40 -30 89 -77 48 -47 87 -86&#10;86 -88z m2155 78 c-14 -11 -29 -20 -35 -20 -5 0 1 9 15 20 14 11 30 20 35 20&#10;6 0 -1 -9 -15 -20z m185 -90 c-10 -11 -23 -20 -28 -20 -6 0 0 11 13 25 27 29&#10;42 25 15 -5z m-1780 -118 c-3 -3 -11 0 -18 7 -9 10 -8 11 6 5 10 -3 15 -9 12&#10;-12z m1555 -222 c-8 -5 -19 -10 -25 -10 -5 0 -3 5 5 10 8 5 20 10 25 10 6 0 3&#10;-5 -5 -10z"/>
    <path d="M3388 4327 c14 -6 30 -7 43 -1 16 8 12 9 -23 10 -37 1 -40 0 -20 -9z"/>
    <path d="M3737 4209 c7 -7 15 -10 18 -7 3 3 -2 9 -12 12 -14 6 -15 5 -6 -5z"/>
    <path d="M3851 3927 c17 -14 221 -115 209 -103 -16 15 -191 106 -205 106 -5 0&#10;-6 -2 -4 -3z"/>
    <path d="M3891 3816 c9 -8 109 -56 109 -52 0 7 -88 56 -101 56 -7 0 -10 -2 -8&#10;-4z"/>
    <path d="M4204 3802 c11 -12 25 -22 31 -22 7 0 18 -7 25 -16 8 -8 23 -20 34&#10;-26 42 -21 -21 37 -67 62 -41 23 -42 23 -23 2z"/>
    <path d="M3798 3783 c7 -3 16 -2 19 1 4 3 -2 6 -13 5 -11 0 -14 -3 -6 -6z"/>
    <path d="M4140 3735 c7 -9 15 -13 17 -11 7 7 -7 26 -19 26 -6 0 -6 -6 2 -15z"/>
    <path d="M4530 3714 c0 -10 -6 -14 -14 -11 -28 11 -24 -6 9 -38 18 -18 47 -36&#10;64 -40 17 -4 39 -17 48 -29 32 -39 48 -41 18 -2 -16 21 -40 43 -54 49 -21 8&#10;-23 11 -8 14 30 8 16 29 -40 61 -20 10 -23 10 -23 -4z"/>
    <path d="M4377 3686 c-3 -8 2 -20 11 -28 15 -12 16 -11 3 5 -26 33 5 17 40&#10;-20 18 -21 27 -32 19 -25 -7 6 -17 12 -21 12 -4 0 60 -68 142 -151 82 -82 165&#10;-176 185 -207 64 -98 81 -126 108 -172 20 -35 26 -40 26 -22 0 12 -4 22 -9 22&#10;-9 0 -27 40 -22 49 2 2 -1 7 -6 10 -13 8 -95 136 -122 189 -12 23 -33 48 -46&#10;54 -13 6 -30 23 -37 37 -7 15 -38 49 -68 76 -30 27 -68 65 -83 84 -23 30 -103&#10;101 -112 101 -2 0 -5 -6 -8 -14z"/>
    <path d="M2405 3651 c-3 -5 6 -8 20 -7 35 4 44 16 12 16 -14 0 -28 -4 -32 -9z"/>
    <path d="M2848 3593 c7 -3 16 -2 19 1 4 3 -2 6 -13 5 -11 0 -14 -3 -6 -6z"/>
    <path d="M3610 3590 c0 -5 7 -10 16 -10 8 0 12 5 9 10 -3 6 -10 10 -16 10 -5&#10;0 -9 -4 -9 -10z"/>
    <path d="M4336 3575 c4 -8 9 -15 13 -15 3 0 23 -16 45 -35 21 -19 40 -35 42&#10;-35 12 0 -19 39 -43 55 -15 10 -32 24 -36 32 -11 18 -28 17 -21 -2z"/>
    <path d="M2510 3414 c-19 -14 -37 -30 -39 -37 -2 -6 4 -4 13 6 10 9 23 17 30&#10;17 7 0 21 9 31 20 24 27 8 24 -35 -6z"/>
    <path d="M4410 3410 c0 -5 5 -10 11 -10 5 0 7 5 4 10 -3 6 -8 10 -11 10 -2 0&#10;-4 -4 -4 -10z"/>
    <path d="M4543 3366 c9 -7 17 -17 17 -21 0 -9 31 -34 43 -35 5 0 -6 16 -24 35&#10;-19 19 -38 35 -44 35 -5 0 -2 -7 8 -14z"/>
    <path d="M2125 3350 c-10 -11 -14 -20 -9 -20 5 0 15 9 22 20 7 11 11 20 9 20&#10;-2 0 -12 -9 -22 -20z"/>
    <path d="M2360 3345 c-8 -9 -8 -15 -2 -15 12 0 26 19 19 26 -2 2 -10 -2 -17&#10;-11z"/>
    <path d="M2375 3320 c-3 -5 -2 -10 4 -10 5 0 13 5 16 10 3 6 2 10 -4 10 -5 0&#10;-13 -4 -16 -10z"/>
    <path d="M2308 3290 c-17 -17 -29 -32 -26 -35 2 -3 20 11 38 30 41 43 32 47&#10;-12 5z"/>
    <path d="M4607 3293 c-3 -5 8 -22 25 -38 l31 -30 -17 32 c-17 35 -32 48 -39&#10;36z"/>
    <path d="M4556 3237 c3 -10 9 -15 12 -12 3 3 0 11 -7 18 -10 9 -11 8 -5 -6z"/>
    <path d="M2107 3211 c-4 -17 -3 -21 5 -13 5 5 8 16 6 23 -3 8 -7 3 -11 -10z"/>
    <path d="M4460 3061 c0 -5 7 -14 15 -21 12 -10 15 -10 15 3 0 8 -7 17 -15 21&#10;-8 3 -15 2 -15 -3z"/>
    <path d="M4330 3022 c0 -12 19 -26 26 -19 2 2 -2 10 -11 17 -9 8 -15 8 -15 2z"/>
    <path d="M4406 2896 c3 -9 11 -16 16 -16 13 0 5 23 -10 28 -7 2 -10 -2 -6 -12z"/>
    <path d="M4990 2840 c1 -8 7 -24 15 -34 19 -25 19 -16 0 20 -8 16 -15 22 -15&#10;14z"/>
    <path d="M4443 2827 c3 -7 9 -11 15 -10 6 2 9 -3 6 -10 -2 -7 2 -21 10 -32 12&#10;-16 15 -17 16 -4 0 9 -3 19 -7 23 -4 4 -8 15 -8 23 0 9 -8 17 -18 19 -10 1&#10;-16 -3 -14 -9z"/>
    <path d="M5020 2765 c0 -5 5 -17 10 -25 5 -8 10 -10 10 -5 0 6 -5 17 -10 25&#10;-5 8 -10 11 -10 5z"/>
    <path d="M4500 2731 c0 -6 4 -13 10 -16 6 -3 7 1 4 9 -7 18 -14 21 -14 7z"/>
    <path d="M5040 2718 c0 -4 5 -19 11 -35 6 -15 19 -59 30 -98 l19 -70 -6 55&#10;c-6 54 -29 126 -46 145 -4 5 -8 6 -8 3z"/>
    <path d="M4526 2687 c3 -10 9 -15 12 -12 3 3 0 11 -7 18 -10 9 -11 8 -5 -6z"/>
    <path d="M4850 2650 c0 -5 5 -10 11 -10 5 0 7 5 4 10 -3 6 -8 10 -11 10 -2 0&#10;-4 -4 -4 -10z"/>
    <path d="M4961 2563 c-1 -13 8 -49 19 -82 12 -32 27 -103 34 -157 8 -56 14&#10;-82 15 -59 0 22 -6 76 -13 120 -16 90 -54 212 -55 178z"/>
    <path d="M5090 2497 c0 -8 3 -17 7 -21 4 -4 7 -17 8 -29 0 -12 5 -22 10 -22&#10;10 0 10 46 1 72 -7 17 -26 17 -26 0z"/>
    <path d="M5020 2468 c0 -7 5 -20 11 -28 9 -13 10 -12 5 3 -3 9 -1 17 4 17 6 0&#10;10 5 10 10 0 6 -7 10 -15 10 -8 0 -15 -6 -15 -12z"/>
    <path d="M4967 2325 c3 -33 7 -62 9 -64 7 -8 2 74 -6 99 -5 16 -6 2 -3 -35z"/>
    <path d="M5061 2349 c-1 -9 -4 -32 -7 -50 -4 -26 -3 -30 5 -19 10 13 11 13 11&#10;0 0 -8 3 -26 7 -39 4 -17 3 -22 -5 -17 -17 10 -16 -103 2 -145 13 -30 14 -31&#10;20 -11 9 28 -2 170 -19 242 -7 30 -14 48 -14 39z"/>
    <path d="M5126 2323 c8 -54 12 -65 24 -58 5 3 10 -1 10 -9 0 -9 -6 -15 -12&#10;-13 -8 1 -12 -6 -10 -18 1 -11 3 -74 4 -140 0 -66 3 -111 5 -100 3 11 10 25&#10;15 30 8 7 9 6 4 -2 -4 -8 -1 -13 7 -13 7 0 19 11 25 25 15 32 16 131 2 140 -5&#10;3 -10 23 -10 43 0 20 -7 50 -15 66 -8 15 -15 35 -15 42 0 8 -4 14 -10 14 -5 0&#10;-10 7 -10 15 0 8 -4 15 -9 15 -6 0 -7 -17 -5 -37z"/>
    <path d="M5220 2208 c0 -41 8 -68 20 -68 10 0 0 82 -11 95 -5 5 -9 -6 -9 -27z"/>
    <path d="M5270 2124 c0 -16 5 -36 11 -44 7 -11 8 -4 3 25 -8 50 -14 58 -14 19z"/>
    <path d="M1296 2055 c22 -74 47 -126 55 -114 5 8 3 20 -5 29 -8 8 -23 35 -35&#10;60 -12 25 -19 36 -15 25z"/>
    <path d="M1551 1965 c1 -19 18 -51 18 -35 0 8 -4 22 -9 30 -5 8 -9 11 -9 5z"/>
    <path d="M1701 1740 c14 -31 19 -36 19 -24 0 6 -7 19 -16 30 -14 18 -14 18 -3&#10;-6z"/>
    <path d="M1670 1741 c0 -5 5 -13 10 -16 6 -3 10 -2 10 4 0 5 -4 13 -10 16 -5&#10;3 -10 2 -10 -4z"/>
    <path d="M1690 1707 c0 -3 16 -29 35 -58 19 -30 35 -47 35 -38 0 8 -7 24 -15&#10;35 -20 26 -19 40 2 23 15 -13 15 -12 2 9 -8 12 -16 17 -18 11 -2 -6 -11 -3&#10;-22 7 -10 9 -19 15 -19 11z"/>
    <path d="M1210 1675 c1 -6 7 -21 16 -35 l15 -25 -7 25 c-7 26 -24 52 -24 35z"/>
    <path d="M1881 1485 c12 -29 52 -85 62 -85 7 0 7 4 -1 12 -7 7 -12 18 -12 26&#10;0 12 3 12 15 2 8 -7 15 -18 15 -25 0 -7 7 -18 15 -25 9 -7 14 -19 11 -27 -4&#10;-9 -1 -11 5 -7 6 3 22 -6 35 -22 13 -16 23 -24 24 -18 0 10 -107 146 -131 167&#10;-5 4 -4 2 1 -5 21 -25 9 -30 -16 -7 -15 13 -25 20 -23 14z"/>
    <path d="M4256 1343 c-6 -14 -5 -15 5 -6 7 7 10 15 7 18 -3 3 -9 -2 -12 -12z"/>
    <path d="M2060 1331 c0 -5 7 -14 15 -21 8 -6 13 -17 12 -23 -1 -6 28 -32 64&#10;-57 36 -25 87 -60 113 -77 26 -18 49 -33 51 -33 1 0 29 -15 62 -33 108 -61&#10;182 -87 338 -118 28 -5 70 -14 95 -20 87 -18 270 -27 309 -14 16 5 22 5 18 -2&#10;-6 -9 53 0 150 22 16 4 21 1 18 -8 -4 -8 4 -13 20 -15 16 -1 25 3 25 13 0 10&#10;25 19 80 31 44 10 78 19 76 22 -2 2 -40 -3 -83 -12 -173 -34 -410 -45 -560&#10;-26 -88 12 -243 45 -288 62 -132 50 -339 169 -436 252 -64 55 -79 66 -79 57z&#10;m70 -61 c0 -5 -2 -10 -4 -10 -3 0 -8 5 -11 10 -3 6 -1 10 4 10 6 0 11 -4 11&#10;-10z"/>
    <path d="M4825 1179 c-4 -6 -5 -12 -2 -15 2 -3 7 2 10 11 7 17 1 20 -8 4z"/>
    <path d="M1460 1131 c0 -6 4 -13 10 -16 6 -3 7 1 4 9 -7 18 -14 21 -14 7z"/>
    <path d="M3790 1105 c-49 -26 -46 -32 6 -13 19 6 36 18 38 25 7 16 10 17 -44&#10;-12z"/>
    <path d="M4787 1103 c-4 -3 -7 -11 -7 -17 0 -6 5 -5 12 2 6 6 9 14 7 17 -3 3&#10;-9 2 -12 -2z"/>
    <path d="M3695 1065 c-16 -7 -23 -14 -15 -14 8 0 26 6 40 14 32 18 14 18 -25&#10;0z"/>
    <path d="M4729 1063 c-13 -16 -12 -17 4 -4 16 13 21 21 13 21 -2 0 -10 -8 -17&#10;-17z"/>
    <path d="M3585 1028 c-33 -12 -55 -23 -49 -25 12 -4 124 35 124 43 0 6 -11 4&#10;-75 -18z"/>
    <path d="M3250 899 c-30 -4 -79 -7 -108 -8 -33 -1 -51 -5 -47 -11 3 -6 23 -8&#10;43 -5 20 3 68 7 105 9 38 2 71 6 73 9 11 11 -13 13 -66 6z"/>
    <path d="M3353 903 c9 -2 23 -2 30 0 6 3 -1 5 -18 5 -16 0 -22 -2 -12 -5z"/>
    <path d="M2943 883 c9 -2 25 -2 35 0 9 3 1 5 -18 5 -19 0 -27 -2 -17 -5z"/>
    <path d="M4346 865 c-11 -8 -17 -17 -14 -20 2 -3 13 4 23 15 21 23 18 25 -9 5z"/>
    <path d="M4270 800 c-9 -6 -10 -10 -3 -10 6 0 15 5 18 10 8 12 4 12 -15 0z"/>
    <path d="M3670 220 l-25 -8 27 -1 c15 -1 30 4 33 9 7 11 0 11 -35 0z"/>
  </g>
</svg>